<?xml version="1.0" encoding="utf-8" standalone="no"?>
<!DOCTYPE svg PUBLIC "-//W3C//DTD SVG 1.1//EN"
  "http://www.w3.org/Graphics/SVG/1.1/DTD/svg11.dtd">
<svg xmlns:xlink="http://www.w3.org/1999/xlink" width="240.57pt" height="207.1pt" viewBox="0 0 240.57 207.1" xmlns="http://www.w3.org/2000/svg" version="1.1">
 <metadata>
  <rdf:RDF xmlns:dc="http://purl.org/dc/elements/1.1/" xmlns:cc="http://creativecommons.org/ns#" xmlns:rdf="http://www.w3.org/1999/02/22-rdf-syntax-ns#">
   <cc:Work>
    <dc:type rdf:resource="http://purl.org/dc/dcmitype/StillImage"/>
    <dc:date>2026-06-24T19:16:03.907765</dc:date>
    <dc:format>image/svg+xml</dc:format>
    <dc:creator>
     <cc:Agent>
      <dc:title>Matplotlib v3.11.0, https://matplotlib.org/</dc:title>
     </cc:Agent>
    </dc:creator>
   </cc:Work>
  </rdf:RDF>
 </metadata>
 <defs>
  <style type="text/css">*{stroke-linejoin: round; stroke-linecap: butt}</style>
 </defs>
 <g id="figure_1">
  <g id="patch_1">
   <path d="M 0 207.1 
L 240.57 207.1 
L 240.57 0 
L 0 0 
L 0 207.1 
z
" style="fill: none"/>
  </g>
  <g id="axes_1">
   <g id="line2d_1">
    <path d="M 62.685 114.58 
L 62.685 143.74 
M 71.685 143.74 
L 53.685 143.74 
M 71.685 150.22 
L 53.685 150.22 
M 62.685 150.22 
L 62.685 179.38 
" clip-path="url(#p1fa3f23373)" style="fill: none; stroke: #000000; stroke-width: 2; stroke-linecap: round"/>
   </g>
   <g id="line2d_2">
    <path d="M 62.685 179.38 
L 62.685 193.78 
L 53.685 193.78 
L 71.685 193.78 
M 56.385 198.1 
L 68.985 198.1 
M 60.885 202.42 
L 64.485 202.42 
" clip-path="url(#p1fa3f23373)" style="fill: none; stroke: #000000; stroke-width: 2; stroke-linecap: round"/>
   </g>
   <g id="line2d_3">
    <path d="M 62.685 114.58 
L 80.685 114.58 
L 83.685 105.58 
L 89.685 123.58 
L 95.685 105.58 
L 101.685 123.58 
L 107.685 105.58 
L 113.685 123.58 
L 116.685 114.58 
L 134.685 114.58 
" clip-path="url(#p1fa3f23373)" style="fill: none; stroke: #000000; stroke-width: 2; stroke-linecap: round"/>
   </g>
   <g id="line2d_4">
    <path d="M 134.685 114.58 
L 134.685 143.74 
M 143.685 143.74 
L 125.685 143.74 
M 143.685 150.22 
L 125.685 150.22 
M 134.685 150.22 
L 134.685 179.38 
" clip-path="url(#p1fa3f23373)" style="fill: none; stroke: #000000; stroke-width: 2; stroke-linecap: round"/>
   </g>
   <g id="line2d_5">
    <path d="M 134.685 179.38 
L 134.685 193.78 
L 125.685 193.78 
L 143.685 193.78 
M 128.385 198.1 
L 140.985 198.1 
M 132.885 202.42 
L 136.485 202.42 
" clip-path="url(#p1fa3f23373)" style="fill: none; stroke: #000000; stroke-width: 2; stroke-linecap: round"/>
   </g>
   <g id="text_1">
    <!-- $C_m$ -->
    <g transform="translate(54.225 192.58) scale(0.12 -0.12)">
     <defs>
      <path id="DejaVuSans-Oblique-26" d="M 4447 4306 
L 4319 3641 
Q 4019 3944 3683 4091 
Q 3347 4238 2956 4238 
Q 2422 4238 2017 3981 
Q 1613 3725 1319 3200 
Q 1131 2863 1032 2486 
Q 934 2109 934 1728 
Q 934 1091 1264 756 
Q 1594 422 2222 422 
Q 2656 422 3056 561 
Q 3456 700 3834 978 
L 3688 231 
Q 3316 72 2936 -9 
Q 2556 -91 2175 -91 
Q 1278 -91 773 396 
Q 269 884 269 1753 
Q 269 2309 461 2846 
Q 653 3384 1013 3828 
Q 1394 4300 1883 4525 
Q 2372 4750 3022 4750 
Q 3422 4750 3780 4639 
Q 4138 4528 4447 4306 
z
" transform="scale(0.015625)"/>
      <path id="DejaVuSans-Oblique-50" d="M 5747 2113 
L 5338 0 
L 4763 0 
L 5166 2094 
Q 5191 2228 5203 2325 
Q 5216 2422 5216 2491 
Q 5216 2772 5059 2928 
Q 4903 3084 4622 3084 
Q 4203 3084 3875 2770 
Q 3547 2456 3450 1953 
L 3066 0 
L 2491 0 
L 2900 2094 
Q 2925 2209 2937 2307 
Q 2950 2406 2950 2484 
Q 2950 2769 2794 2926 
Q 2638 3084 2363 3084 
Q 1938 3084 1609 2770 
Q 1281 2456 1184 1953 
L 800 0 
L 225 0 
L 909 3500 
L 1484 3500 
L 1375 2956 
Q 1609 3263 1923 3423 
Q 2238 3584 2597 3584 
Q 2978 3584 3223 3384 
Q 3469 3184 3519 2828 
Q 3781 3197 4126 3390 
Q 4472 3584 4856 3584 
Q 5306 3584 5551 3325 
Q 5797 3066 5797 2591 
Q 5797 2488 5784 2364 
Q 5772 2241 5747 2113 
z
" transform="scale(0.015625)"/>
     </defs>
     <use xlink:href="#DejaVuSans-Oblique-26" transform="translate(0 0.78125)"/>
     <use xlink:href="#DejaVuSans-Oblique-50" transform="translate(69.824219 -14.218701) scale(0.7)"/>
    </g>
   </g>
   <g id="text_2">
    <!-- $H_{in}=1/R_m$ -->
    <g transform="translate(68.505 136.66) scale(0.12 -0.12)">
     <defs>
      <path id="DejaVuSans-Oblique-2b" d="M 1081 4666 
L 1716 4666 
L 1344 2753 
L 3634 2753 
L 4006 4666 
L 4641 4666 
L 3731 0 
L 3097 0 
L 3531 2222 
L 1241 2222 
L 806 0 
L 172 0 
L 1081 4666 
z
" transform="scale(0.015625)"/>
      <path id="DejaVuSans-Oblique-4c" d="M 1172 4863 
L 1747 4863 
L 1606 4134 
L 1031 4134 
L 1172 4863 
z
M 909 3500 
L 1484 3500 
L 800 0 
L 225 0 
L 909 3500 
z
" transform="scale(0.015625)"/>
      <path id="DejaVuSans-Oblique-51" d="M 3566 2113 
L 3156 0 
L 2578 0 
L 2988 2091 
Q 3016 2238 3031 2350 
Q 3047 2463 3047 2528 
Q 3047 2791 2881 2937 
Q 2716 3084 2419 3084 
Q 1956 3084 1622 2776 
Q 1288 2469 1184 1941 
L 800 0 
L 225 0 
L 903 3500 
L 1478 3500 
L 1363 2950 
Q 1603 3253 1940 3418 
Q 2278 3584 2650 3584 
Q 3113 3584 3367 3334 
Q 3622 3084 3622 2631 
Q 3622 2519 3608 2391 
Q 3594 2263 3566 2113 
z
" transform="scale(0.015625)"/>
      <path id="DejaVuSans-20" d="M 678 2906 
L 4684 2906 
L 4684 2381 
L 678 2381 
L 678 2906 
z
M 678 1631 
L 4684 1631 
L 4684 1100 
L 678 1100 
L 678 1631 
z
" transform="scale(0.015625)"/>
      <path id="DejaVuSans-14" d="M 794 531 
L 1825 531 
L 1825 4091 
L 703 3866 
L 703 4441 
L 1819 4666 
L 2450 4666 
L 2450 531 
L 3481 531 
L 3481 0 
L 794 0 
L 794 531 
z
" transform="scale(0.015625)"/>
      <path id="DejaVuSans-12" d="M 1625 4666 
L 2156 4666 
L 531 -594 
L 0 -594 
L 1625 4666 
z
" transform="scale(0.015625)"/>
      <path id="DejaVuSans-Oblique-35" d="M 1613 4147 
L 1294 2491 
L 2106 2491 
Q 2584 2491 2879 2755 
Q 3175 3019 3175 3444 
Q 3175 3784 2976 3965 
Q 2778 4147 2406 4147 
L 1613 4147 
z
M 2772 2241 
Q 2972 2194 3105 2009 
Q 3238 1825 3413 1275 
L 3809 0 
L 3144 0 
L 2778 1197 
Q 2638 1659 2453 1815 
Q 2269 1972 1888 1972 
L 1191 1972 
L 806 0 
L 172 0 
L 1081 4666 
L 2503 4666 
Q 3150 4666 3495 4373 
Q 3841 4081 3841 3531 
Q 3841 3044 3547 2687 
Q 3253 2331 2772 2241 
z
" transform="scale(0.015625)"/>
     </defs>
     <use xlink:href="#DejaVuSans-Oblique-2b" transform="translate(0 0.09375)"/>
     <use xlink:href="#DejaVuSans-Oblique-4c" transform="translate(75.195312 -14.906201) scale(0.7)"/>
     <use xlink:href="#DejaVuSans-Oblique-51" transform="translate(94.643555 -14.906201) scale(0.7)"/>
     <use xlink:href="#DejaVuSans-20" transform="translate(161.225586 0.09375)"/>
     <use xlink:href="#DejaVuSans-14" transform="translate(264.49707 0.09375)"/>
     <use xlink:href="#DejaVuSans-12" transform="translate(328.120117 0.09375)"/>
     <use xlink:href="#DejaVuSans-Oblique-35" transform="translate(361.811523 0.09375)"/>
     <use xlink:href="#DejaVuSans-Oblique-50" transform="translate(431.293945 -14.906201) scale(0.7)"/>
    </g>
   </g>
   <g id="text_3">
    <!-- $C_{room}$ -->
    <g transform="translate(119.325 108.52) scale(0.12 -0.12)">
     <defs>
      <path id="DejaVuSans-Oblique-55" d="M 2853 2969 
Q 2766 3016 2653 3041 
Q 2541 3066 2413 3066 
Q 1953 3066 1609 2717 
Q 1266 2369 1153 1784 
L 800 0 
L 225 0 
L 909 3500 
L 1484 3500 
L 1375 2956 
Q 1603 3259 1920 3421 
Q 2238 3584 2597 3584 
Q 2691 3584 2781 3573 
Q 2872 3563 2963 3538 
L 2853 2969 
z
" transform="scale(0.015625)"/>
      <path id="DejaVuSans-Oblique-52" d="M 1625 -91 
Q 1009 -91 651 289 
Q 294 669 294 1325 
Q 294 1706 417 2101 
Q 541 2497 738 2766 
Q 1047 3184 1428 3384 
Q 1809 3584 2291 3584 
Q 2888 3584 3255 3212 
Q 3622 2841 3622 2241 
Q 3622 1825 3500 1412 
Q 3378 1000 3181 728 
Q 2875 309 2494 109 
Q 2113 -91 1625 -91 
z
M 891 1344 
Q 891 869 1089 633 
Q 1288 397 1691 397 
Q 2269 397 2648 901 
Q 3028 1406 3028 2181 
Q 3028 2634 2825 2865 
Q 2622 3097 2228 3097 
Q 1903 3097 1650 2945 
Q 1397 2794 1197 2484 
Q 1050 2253 970 1956 
Q 891 1659 891 1344 
z
" transform="scale(0.015625)"/>
     </defs>
     <use xlink:href="#DejaVuSans-Oblique-26" transform="translate(0 0.78125)"/>
     <use xlink:href="#DejaVuSans-Oblique-55" transform="translate(69.824219 -14.218701) scale(0.7)"/>
     <use xlink:href="#DejaVuSans-Oblique-52" transform="translate(98.603516 -14.218701) scale(0.7)"/>
     <use xlink:href="#DejaVuSans-Oblique-52" transform="translate(141.430664 -14.218701) scale(0.7)"/>
     <use xlink:href="#DejaVuSans-Oblique-50" transform="translate(184.257812 -14.218701) scale(0.7)"/>
    </g>
   </g>
   <g id="text_4">
    <!-- $H_{out}=0$: one-sided internal mass (furniture) -->
    <g style="fill: #000080" transform="translate(0 13.48) scale(0.11 -0.11)">
     <defs>
      <path id="DejaVuSans-Oblique-58" d="M 428 1388 
L 838 3500 
L 1416 3500 
L 1006 1409 
Q 975 1256 961 1147 
Q 947 1038 947 966 
Q 947 700 1109 554 
Q 1272 409 1569 409 
Q 2031 409 2368 721 
Q 2706 1034 2809 1563 
L 3194 3500 
L 3769 3500 
L 3091 0 
L 2516 0 
L 2631 550 
Q 2388 244 2052 76 
Q 1716 -91 1338 -91 
Q 878 -91 622 161 
Q 366 413 366 863 
Q 366 956 381 1097 
Q 397 1238 428 1388 
z
" transform="scale(0.015625)"/>
      <path id="DejaVuSans-Oblique-57" d="M 2706 3500 
L 2619 3053 
L 1472 3053 
L 1100 1153 
Q 1081 1047 1072 975 
Q 1063 903 1063 863 
Q 1063 663 1183 572 
Q 1303 481 1569 481 
L 2150 481 
L 2053 0 
L 1503 0 
Q 991 0 739 200 
Q 488 400 488 806 
Q 488 878 497 964 
Q 506 1050 525 1153 
L 897 3053 
L 409 3053 
L 500 3500 
L 978 3500 
L 1172 4494 
L 1747 4494 
L 1556 3500 
L 2706 3500 
z
" transform="scale(0.015625)"/>
      <path id="DejaVuSans-13" d="M 2034 4250 
Q 1547 4250 1301 3770 
Q 1056 3291 1056 2328 
Q 1056 1369 1301 889 
Q 1547 409 2034 409 
Q 2525 409 2770 889 
Q 3016 1369 3016 2328 
Q 3016 3291 2770 3770 
Q 2525 4250 2034 4250 
z
M 2034 4750 
Q 2819 4750 3233 4129 
Q 3647 3509 3647 2328 
Q 3647 1150 3233 529 
Q 2819 -91 2034 -91 
Q 1250 -91 836 529 
Q 422 1150 422 2328 
Q 422 3509 836 4129 
Q 1250 4750 2034 4750 
z
" transform="scale(0.015625)"/>
      <path id="DejaVuSans-1d" d="M 750 794 
L 1409 794 
L 1409 0 
L 750 0 
L 750 794 
z
M 750 3309 
L 1409 3309 
L 1409 2516 
L 750 2516 
L 750 3309 
z
" transform="scale(0.015625)"/>
      <path id="DejaVuSans-3" transform="scale(0.015625)"/>
      <path id="DejaVuSans-52" d="M 1959 3097 
Q 1497 3097 1228 2736 
Q 959 2375 959 1747 
Q 959 1119 1226 758 
Q 1494 397 1959 397 
Q 2419 397 2687 759 
Q 2956 1122 2956 1747 
Q 2956 2369 2687 2733 
Q 2419 3097 1959 3097 
z
M 1959 3584 
Q 2709 3584 3137 3096 
Q 3566 2609 3566 1747 
Q 3566 888 3137 398 
Q 2709 -91 1959 -91 
Q 1206 -91 779 398 
Q 353 888 353 1747 
Q 353 2609 779 3096 
Q 1206 3584 1959 3584 
z
" transform="scale(0.015625)"/>
      <path id="DejaVuSans-51" d="M 3513 2113 
L 3513 0 
L 2938 0 
L 2938 2094 
Q 2938 2591 2744 2837 
Q 2550 3084 2163 3084 
Q 1697 3084 1428 2787 
Q 1159 2491 1159 1978 
L 1159 0 
L 581 0 
L 581 3500 
L 1159 3500 
L 1159 2956 
Q 1366 3272 1645 3428 
Q 1925 3584 2291 3584 
Q 2894 3584 3203 3211 
Q 3513 2838 3513 2113 
z
" transform="scale(0.015625)"/>
      <path id="DejaVuSans-48" d="M 3597 1894 
L 3597 1613 
L 953 1613 
Q 991 1019 1311 708 
Q 1631 397 2203 397 
Q 2534 397 2845 478 
Q 3156 559 3463 722 
L 3463 178 
Q 3153 47 2828 -22 
Q 2503 -91 2169 -91 
Q 1331 -91 842 396 
Q 353 884 353 1716 
Q 353 2575 817 3079 
Q 1281 3584 2069 3584 
Q 2775 3584 3186 3129 
Q 3597 2675 3597 1894 
z
M 3022 2063 
Q 3016 2534 2758 2815 
Q 2500 3097 2075 3097 
Q 1594 3097 1305 2825 
Q 1016 2553 972 2059 
L 3022 2063 
z
" transform="scale(0.015625)"/>
      <path id="DejaVuSans-10" d="M 313 2009 
L 1997 2009 
L 1997 1497 
L 313 1497 
L 313 2009 
z
" transform="scale(0.015625)"/>
      <path id="DejaVuSans-56" d="M 2834 3397 
L 2834 2853 
Q 2591 2978 2328 3040 
Q 2066 3103 1784 3103 
Q 1356 3103 1142 2972 
Q 928 2841 928 2578 
Q 928 2378 1081 2264 
Q 1234 2150 1697 2047 
L 1894 2003 
Q 2506 1872 2764 1633 
Q 3022 1394 3022 966 
Q 3022 478 2636 193 
Q 2250 -91 1575 -91 
Q 1294 -91 989 -36 
Q 684 19 347 128 
L 347 722 
Q 666 556 975 473 
Q 1284 391 1588 391 
Q 1994 391 2212 530 
Q 2431 669 2431 922 
Q 2431 1156 2273 1281 
Q 2116 1406 1581 1522 
L 1381 1569 
Q 847 1681 609 1914 
Q 372 2147 372 2553 
Q 372 3047 722 3315 
Q 1072 3584 1716 3584 
Q 2034 3584 2315 3537 
Q 2597 3491 2834 3397 
z
" transform="scale(0.015625)"/>
      <path id="DejaVuSans-4c" d="M 603 3500 
L 1178 3500 
L 1178 0 
L 603 0 
L 603 3500 
z
M 603 4863 
L 1178 4863 
L 1178 4134 
L 603 4134 
L 603 4863 
z
" transform="scale(0.015625)"/>
      <path id="DejaVuSans-47" d="M 2906 2969 
L 2906 4863 
L 3481 4863 
L 3481 0 
L 2906 0 
L 2906 525 
Q 2725 213 2448 61 
Q 2172 -91 1784 -91 
Q 1150 -91 751 415 
Q 353 922 353 1747 
Q 353 2572 751 3078 
Q 1150 3584 1784 3584 
Q 2172 3584 2448 3432 
Q 2725 3281 2906 2969 
z
M 947 1747 
Q 947 1113 1208 752 
Q 1469 391 1925 391 
Q 2381 391 2643 752 
Q 2906 1113 2906 1747 
Q 2906 2381 2643 2742 
Q 2381 3103 1925 3103 
Q 1469 3103 1208 2742 
Q 947 2381 947 1747 
z
" transform="scale(0.015625)"/>
      <path id="DejaVuSans-57" d="M 1172 4494 
L 1172 3500 
L 2356 3500 
L 2356 3053 
L 1172 3053 
L 1172 1153 
Q 1172 725 1289 603 
Q 1406 481 1766 481 
L 2356 481 
L 2356 0 
L 1766 0 
Q 1100 0 847 248 
Q 594 497 594 1153 
L 594 3053 
L 172 3053 
L 172 3500 
L 594 3500 
L 594 4494 
L 1172 4494 
z
" transform="scale(0.015625)"/>
      <path id="DejaVuSans-55" d="M 2631 2963 
Q 2534 3019 2420 3045 
Q 2306 3072 2169 3072 
Q 1681 3072 1420 2755 
Q 1159 2438 1159 1844 
L 1159 0 
L 581 0 
L 581 3500 
L 1159 3500 
L 1159 2956 
Q 1341 3275 1631 3429 
Q 1922 3584 2338 3584 
Q 2397 3584 2469 3576 
Q 2541 3569 2628 3553 
L 2631 2963 
z
" transform="scale(0.015625)"/>
      <path id="DejaVuSans-44" d="M 2194 1759 
Q 1497 1759 1228 1600 
Q 959 1441 959 1056 
Q 959 750 1161 570 
Q 1363 391 1709 391 
Q 2188 391 2477 730 
Q 2766 1069 2766 1631 
L 2766 1759 
L 2194 1759 
z
M 3341 1997 
L 3341 0 
L 2766 0 
L 2766 531 
Q 2569 213 2275 61 
Q 1981 -91 1556 -91 
Q 1019 -91 701 211 
Q 384 513 384 1019 
Q 384 1609 779 1909 
Q 1175 2209 1959 2209 
L 2766 2209 
L 2766 2266 
Q 2766 2663 2505 2880 
Q 2244 3097 1772 3097 
Q 1472 3097 1187 3025 
Q 903 2953 641 2809 
L 641 3341 
Q 956 3463 1253 3523 
Q 1550 3584 1831 3584 
Q 2591 3584 2966 3190 
Q 3341 2797 3341 1997 
z
" transform="scale(0.015625)"/>
      <path id="DejaVuSans-4f" d="M 603 4863 
L 1178 4863 
L 1178 0 
L 603 0 
L 603 4863 
z
" transform="scale(0.015625)"/>
      <path id="DejaVuSans-50" d="M 3328 2828 
Q 3544 3216 3844 3400 
Q 4144 3584 4550 3584 
Q 5097 3584 5394 3201 
Q 5691 2819 5691 2113 
L 5691 0 
L 5113 0 
L 5113 2094 
Q 5113 2597 4934 2840 
Q 4756 3084 4391 3084 
Q 3944 3084 3684 2787 
Q 3425 2491 3425 1978 
L 3425 0 
L 2847 0 
L 2847 2094 
Q 2847 2600 2669 2842 
Q 2491 3084 2119 3084 
Q 1678 3084 1418 2786 
Q 1159 2488 1159 1978 
L 1159 0 
L 581 0 
L 581 3500 
L 1159 3500 
L 1159 2956 
Q 1356 3278 1631 3431 
Q 1906 3584 2284 3584 
Q 2666 3584 2933 3390 
Q 3200 3197 3328 2828 
z
" transform="scale(0.015625)"/>
      <path id="DejaVuSans-b" d="M 1984 4856 
Q 1566 4138 1362 3434 
Q 1159 2731 1159 2009 
Q 1159 1288 1364 580 
Q 1569 -128 1984 -844 
L 1484 -844 
Q 1016 -109 783 600 
Q 550 1309 550 2009 
Q 550 2706 781 3412 
Q 1013 4119 1484 4856 
L 1984 4856 
z
" transform="scale(0.015625)"/>
      <path id="DejaVuSans-49" d="M 2375 4863 
L 2375 4384 
L 1825 4384 
Q 1516 4384 1395 4259 
Q 1275 4134 1275 3809 
L 1275 3500 
L 2222 3500 
L 2222 3053 
L 1275 3053 
L 1275 0 
L 697 0 
L 697 3053 
L 147 3053 
L 147 3500 
L 697 3500 
L 697 3744 
Q 697 4328 969 4595 
Q 1241 4863 1831 4863 
L 2375 4863 
z
" transform="scale(0.015625)"/>
      <path id="DejaVuSans-58" d="M 544 1381 
L 544 3500 
L 1119 3500 
L 1119 1403 
Q 1119 906 1312 657 
Q 1506 409 1894 409 
Q 2359 409 2629 706 
Q 2900 1003 2900 1516 
L 2900 3500 
L 3475 3500 
L 3475 0 
L 2900 0 
L 2900 538 
Q 2691 219 2414 64 
Q 2138 -91 1772 -91 
Q 1169 -91 856 284 
Q 544 659 544 1381 
z
M 1991 3584 
L 1991 3584 
z
" transform="scale(0.015625)"/>
      <path id="DejaVuSans-c" d="M 513 4856 
L 1013 4856 
Q 1481 4119 1714 3412 
Q 1947 2706 1947 2009 
Q 1947 1309 1714 600 
Q 1481 -109 1013 -844 
L 513 -844 
Q 928 -128 1133 580 
Q 1338 1288 1338 2009 
Q 1338 2731 1133 3434 
Q 928 4138 513 4856 
z
" transform="scale(0.015625)"/>
     </defs>
     <use xlink:href="#DejaVuSans-Oblique-2b" transform="translate(0 0.015625)"/>
     <use xlink:href="#DejaVuSans-Oblique-52" transform="translate(75.195312 -14.984326) scale(0.7)"/>
     <use xlink:href="#DejaVuSans-Oblique-58" transform="translate(118.022461 -14.984326) scale(0.7)"/>
     <use xlink:href="#DejaVuSans-Oblique-57" transform="translate(162.387695 -14.984326) scale(0.7)"/>
     <use xlink:href="#DejaVuSans-20" transform="translate(212.050781 0.015625)"/>
     <use xlink:href="#DejaVuSans-13" transform="translate(315.322266 0.015625)"/>
     <use xlink:href="#DejaVuSans-1d" transform="translate(378.945312 0.015625)"/>
     <use xlink:href="#DejaVuSans-3" transform="translate(412.636719 0.015625)"/>
     <use xlink:href="#DejaVuSans-52" transform="translate(444.423828 0.015625)"/>
     <use xlink:href="#DejaVuSans-51" transform="translate(505.605469 0.015625)"/>
     <use xlink:href="#DejaVuSans-48" transform="translate(568.984375 0.015625)"/>
     <use xlink:href="#DejaVuSans-10" transform="translate(630.507812 0.015625)"/>
     <use xlink:href="#DejaVuSans-56" transform="translate(666.591797 0.015625)"/>
     <use xlink:href="#DejaVuSans-4c" transform="translate(718.691406 0.015625)"/>
     <use xlink:href="#DejaVuSans-47" transform="translate(746.474609 0.015625)"/>
     <use xlink:href="#DejaVuSans-48" transform="translate(809.951172 0.015625)"/>
     <use xlink:href="#DejaVuSans-47" transform="translate(871.474609 0.015625)"/>
     <use xlink:href="#DejaVuSans-3" transform="translate(934.951172 0.015625)"/>
     <use xlink:href="#DejaVuSans-4c" transform="translate(966.738281 0.015625)"/>
     <use xlink:href="#DejaVuSans-51" transform="translate(994.521484 0.015625)"/>
     <use xlink:href="#DejaVuSans-57" transform="translate(1057.900391 0.015625)"/>
     <use xlink:href="#DejaVuSans-48" transform="translate(1097.109375 0.015625)"/>
     <use xlink:href="#DejaVuSans-55" transform="translate(1158.632812 0.015625)"/>
     <use xlink:href="#DejaVuSans-51" transform="translate(1197.746094 0.015625)"/>
     <use xlink:href="#DejaVuSans-44" transform="translate(1261.125 0.015625)"/>
     <use xlink:href="#DejaVuSans-4f" transform="translate(1322.404297 0.015625)"/>
     <use xlink:href="#DejaVuSans-3" transform="translate(1350.1875 0.015625)"/>
     <use xlink:href="#DejaVuSans-50" transform="translate(1381.974609 0.015625)"/>
     <use xlink:href="#DejaVuSans-44" transform="translate(1479.386719 0.015625)"/>
     <use xlink:href="#DejaVuSans-56" transform="translate(1540.666016 0.015625)"/>
     <use xlink:href="#DejaVuSans-56" transform="translate(1592.765625 0.015625)"/>
     <use xlink:href="#DejaVuSans-3" transform="translate(1644.865234 0.015625)"/>
     <use xlink:href="#DejaVuSans-b" transform="translate(1676.652344 0.015625)"/>
     <use xlink:href="#DejaVuSans-49" transform="translate(1715.666016 0.015625)"/>
     <use xlink:href="#DejaVuSans-58" transform="translate(1750.871094 0.015625)"/>
     <use xlink:href="#DejaVuSans-55" transform="translate(1814.25 0.015625)"/>
     <use xlink:href="#DejaVuSans-51" transform="translate(1853.363281 0.015625)"/>
     <use xlink:href="#DejaVuSans-4c" transform="translate(1916.742188 0.015625)"/>
     <use xlink:href="#DejaVuSans-57" transform="translate(1944.525391 0.015625)"/>
     <use xlink:href="#DejaVuSans-58" transform="translate(1983.734375 0.015625)"/>
     <use xlink:href="#DejaVuSans-55" transform="translate(2047.113281 0.015625)"/>
     <use xlink:href="#DejaVuSans-48" transform="translate(2086.226562 0.015625)"/>
     <use xlink:href="#DejaVuSans-c" transform="translate(2147.75 0.015625)"/>
    </g>
   </g>
   <g id="patch_2">
    <path d="M 62.685 117.28 
C 63.401048 117.28 64.087866 116.995511 64.594188 116.489188 
C 65.100511 115.982866 65.385 115.296048 65.385 114.58 
C 65.385 113.863952 65.100511 113.177134 64.594188 112.670812 
C 64.087866 112.164489 63.401048 111.88 62.685 111.88 
C 61.968952 111.88 61.282134 112.164489 60.775812 112.670812 
C 60.269489 113.177134 59.985 113.863952 59.985 114.58 
C 59.985 115.296048 60.269489 115.982866 60.775812 116.489188 
C 61.282134 116.995511 61.968952 117.28 62.685 117.28 
z
" clip-path="url(#p1fa3f23373)" style="stroke: #000000; stroke-width: 2; stroke-linejoin: miter"/>
   </g>
   <g id="text_5">
    <!-- $T_{m}$ -->
    <g transform="translate(54.705 103.96) scale(0.12 -0.12)">
     <defs>
      <path id="DejaVuSans-Oblique-37" d="M 378 4666 
L 4325 4666 
L 4225 4134 
L 2559 4134 
L 1759 0 
L 1125 0 
L 1925 4134 
L 275 4134 
L 378 4666 
z
" transform="scale(0.015625)"/>
     </defs>
     <use xlink:href="#DejaVuSans-Oblique-37" transform="translate(0 0.09375)"/>
     <use xlink:href="#DejaVuSans-Oblique-50" transform="translate(61.083984 -14.906201) scale(0.7)"/>
    </g>
   </g>
   <g id="patch_3">
    <path d="M 134.685 117.28 
C 135.401048 117.28 136.087866 116.995511 136.594188 116.489188 
C 137.100511 115.982866 137.385 115.296048 137.385 114.58 
C 137.385 113.863952 137.100511 113.177134 136.594188 112.670812 
C 136.087866 112.164489 135.401048 111.88 134.685 111.88 
C 133.968952 111.88 133.282134 112.164489 132.775812 112.670812 
C 132.269489 113.177134 131.985 113.863952 131.985 114.58 
C 131.985 115.296048 132.269489 115.982866 132.775812 116.489188 
C 133.282134 116.995511 133.968952 117.28 134.685 117.28 
z
" clip-path="url(#p1fa3f23373)" style="stroke: #000000; stroke-width: 2; stroke-linejoin: miter"/>
   </g>
   <g id="text_6">
    <!-- $T_{room}$ -->
    <g transform="translate(119.865 103.9) scale(0.12 -0.12)">
     <use xlink:href="#DejaVuSans-Oblique-37" transform="translate(0 0.09375)"/>
     <use xlink:href="#DejaVuSans-Oblique-55" transform="translate(61.083984 -14.906201) scale(0.7)"/>
     <use xlink:href="#DejaVuSans-Oblique-52" transform="translate(89.863281 -14.906201) scale(0.7)"/>
     <use xlink:href="#DejaVuSans-Oblique-52" transform="translate(132.69043 -14.906201) scale(0.7)"/>
     <use xlink:href="#DejaVuSans-Oblique-50" transform="translate(175.517578 -14.906201) scale(0.7)"/>
    </g>
   </g>
  </g>
 </g>
 <defs>
  <clipPath id="p1fa3f23373">
   <rect x="6.969" y="0" width="226.632" height="207.1"/>
  </clipPath>
 </defs>
</svg>
