<?xml version="1.0" encoding="utf-8" standalone="no"?>
<!DOCTYPE svg PUBLIC "-//W3C//DTD SVG 1.1//EN"
  "http://www.w3.org/Graphics/SVG/1.1/DTD/svg11.dtd">
<svg xmlns:xlink="http://www.w3.org/1999/xlink" width="156.657pt" height="163.9pt" viewBox="0 0 156.657 163.9" xmlns="http://www.w3.org/2000/svg" version="1.1">
 <metadata>
  <rdf:RDF xmlns:dc="http://purl.org/dc/elements/1.1/" xmlns:cc="http://creativecommons.org/ns#" xmlns:rdf="http://www.w3.org/1999/02/22-rdf-syntax-ns#">
   <cc:Work>
    <dc:type rdf:resource="http://purl.org/dc/dcmitype/StillImage"/>
    <dc:date>2026-06-24T19:16:02.952994</dc:date>
    <dc:format>image/svg+xml</dc:format>
    <dc:creator>
     <cc:Agent>
      <dc:title>Matplotlib v3.11.0, https://matplotlib.org/</dc:title>
     </cc:Agent>
    </dc:creator>
   </cc:Work>
  </rdf:RDF>
 </metadata>
 <defs>
  <style type="text/css">*{stroke-linejoin: round; stroke-linecap: butt}</style>
 </defs>
 <g id="figure_1">
  <g id="patch_1">
   <path d="M 0 163.9 
L 156.657 163.9 
L 156.657 0 
L 0 0 
L 0 163.9 
z
" style="fill: none"/>
  </g>
  <g id="axes_1">
   <g id="line2d_1">
    <path d="M 104.961 49.78 
L 104.961 89.74 
M 113.961 89.74 
L 95.961 89.74 
M 113.961 96.22 
L 95.961 96.22 
M 104.961 96.22 
L 104.961 136.18 
" clip-path="url(#pf69f018362)" style="fill: none; stroke: #000000; stroke-width: 2; stroke-linecap: round"/>
   </g>
   <g id="line2d_2">
    <path d="M 104.961 136.18 
L 104.961 150.58 
L 95.961 150.58 
L 113.961 150.58 
M 98.661 154.9 
L 111.261 154.9 
M 103.161 159.22 
L 106.761 159.22 
" clip-path="url(#pf69f018362)" style="fill: none; stroke: #000000; stroke-width: 2; stroke-linecap: round"/>
   </g>
   <g id="text_1">
    <!-- $C_{room}$ -->
    <g transform="translate(88.321 43.515) scale(0.13 -0.13)">
     <defs>
      <path id="DejaVuSans-Oblique-26" d="M 4447 4306 
L 4319 3641 
Q 4019 3944 3683 4091 
Q 3347 4238 2956 4238 
Q 2422 4238 2017 3981 
Q 1613 3725 1319 3200 
Q 1131 2863 1032 2486 
Q 934 2109 934 1728 
Q 934 1091 1264 756 
Q 1594 422 2222 422 
Q 2656 422 3056 561 
Q 3456 700 3834 978 
L 3688 231 
Q 3316 72 2936 -9 
Q 2556 -91 2175 -91 
Q 1278 -91 773 396 
Q 269 884 269 1753 
Q 269 2309 461 2846 
Q 653 3384 1013 3828 
Q 1394 4300 1883 4525 
Q 2372 4750 3022 4750 
Q 3422 4750 3780 4639 
Q 4138 4528 4447 4306 
z
" transform="scale(0.015625)"/>
      <path id="DejaVuSans-Oblique-55" d="M 2853 2969 
Q 2766 3016 2653 3041 
Q 2541 3066 2413 3066 
Q 1953 3066 1609 2717 
Q 1266 2369 1153 1784 
L 800 0 
L 225 0 
L 909 3500 
L 1484 3500 
L 1375 2956 
Q 1603 3259 1920 3421 
Q 2238 3584 2597 3584 
Q 2691 3584 2781 3573 
Q 2872 3563 2963 3538 
L 2853 2969 
z
" transform="scale(0.015625)"/>
      <path id="DejaVuSans-Oblique-52" d="M 1625 -91 
Q 1009 -91 651 289 
Q 294 669 294 1325 
Q 294 1706 417 2101 
Q 541 2497 738 2766 
Q 1047 3184 1428 3384 
Q 1809 3584 2291 3584 
Q 2888 3584 3255 3212 
Q 3622 2841 3622 2241 
Q 3622 1825 3500 1412 
Q 3378 1000 3181 728 
Q 2875 309 2494 109 
Q 2113 -91 1625 -91 
z
M 891 1344 
Q 891 869 1089 633 
Q 1288 397 1691 397 
Q 2269 397 2648 901 
Q 3028 1406 3028 2181 
Q 3028 2634 2825 2865 
Q 2622 3097 2228 3097 
Q 1903 3097 1650 2945 
Q 1397 2794 1197 2484 
Q 1050 2253 970 1956 
Q 891 1659 891 1344 
z
" transform="scale(0.015625)"/>
      <path id="DejaVuSans-Oblique-50" d="M 5747 2113 
L 5338 0 
L 4763 0 
L 5166 2094 
Q 5191 2228 5203 2325 
Q 5216 2422 5216 2491 
Q 5216 2772 5059 2928 
Q 4903 3084 4622 3084 
Q 4203 3084 3875 2770 
Q 3547 2456 3450 1953 
L 3066 0 
L 2491 0 
L 2900 2094 
Q 2925 2209 2937 2307 
Q 2950 2406 2950 2484 
Q 2950 2769 2794 2926 
Q 2638 3084 2363 3084 
Q 1938 3084 1609 2770 
Q 1281 2456 1184 1953 
L 800 0 
L 225 0 
L 909 3500 
L 1484 3500 
L 1375 2956 
Q 1609 3263 1923 3423 
Q 2238 3584 2597 3584 
Q 2978 3584 3223 3384 
Q 3469 3184 3519 2828 
Q 3781 3197 4126 3390 
Q 4472 3584 4856 3584 
Q 5306 3584 5551 3325 
Q 5797 3066 5797 2591 
Q 5797 2488 5784 2364 
Q 5772 2241 5747 2113 
z
" transform="scale(0.015625)"/>
     </defs>
     <use xlink:href="#DejaVuSans-Oblique-26" transform="translate(0 0.78125)"/>
     <use xlink:href="#DejaVuSans-Oblique-55" transform="translate(69.824219 -14.218701) scale(0.7)"/>
     <use xlink:href="#DejaVuSans-Oblique-52" transform="translate(98.603516 -14.218701) scale(0.7)"/>
     <use xlink:href="#DejaVuSans-Oblique-52" transform="translate(141.430664 -14.218701) scale(0.7)"/>
     <use xlink:href="#DejaVuSans-Oblique-50" transform="translate(184.257812 -14.218701) scale(0.7)"/>
    </g>
   </g>
   <g id="text_2">
    <!-- $C_{room}\,\dot T_{room} = \sum Q_i$ -->
    <g style="fill: #000080" transform="translate(26.361 14.47) scale(0.11 -0.11)">
     <defs>
      <path id="DejaVuSans-2b8" d="M -1894 4863 
L -1319 4863 
L -1319 4134 
L -1894 4134 
L -1894 4863 
z
M -1600 3584 
L -1600 3584 
z
" transform="scale(0.015625)"/>
      <path id="DejaVuSans-Oblique-37" d="M 378 4666 
L 4325 4666 
L 4225 4134 
L 2559 4134 
L 1759 0 
L 1125 0 
L 1925 4134 
L 275 4134 
L 378 4666 
z
" transform="scale(0.015625)"/>
      <path id="DejaVuSans-20" d="M 678 2906 
L 4684 2906 
L 4684 2381 
L 678 2381 
L 678 2906 
z
M 678 1631 
L 4684 1631 
L 4684 1100 
L 678 1100 
L 678 1631 
z
" transform="scale(0.015625)"/>
      <path id="DejaVuSansDisplay-10" d="M 244 6509 
L 5803 6509 
L 5803 5656 
L 1566 5656 
L 4534 2488 
L 1469 -888 
L 5919 -888 
L 5919 -1738 
L 109 -1738 
L 109 -1078 
L 3316 2463 
L 244 5728 
L 244 6509 
z
" transform="scale(0.015625)"/>
      <path id="DejaVuSans-Oblique-34" d="M 2309 -84 
Q 2275 -88 2237 -89 
Q 2200 -91 2125 -91 
Q 1250 -91 756 411 
Q 263 913 263 1797 
Q 263 2319 452 2844 
Q 641 3369 978 3788 
Q 1369 4269 1858 4509 
Q 2347 4750 2938 4750 
Q 3794 4750 4287 4245 
Q 4781 3741 4781 2869 
Q 4781 1928 4265 1147 
Q 3750 366 2919 44 
L 3553 -825 
L 2847 -825 
L 2309 -84 
z
M 2919 4238 
Q 2400 4238 2003 3986 
Q 1606 3734 1313 3219 
Q 1125 2891 1026 2522 
Q 928 2153 928 1778 
Q 928 1128 1239 775 
Q 1550 422 2119 422 
Q 2631 422 3032 676 
Q 3434 931 3719 1434 
Q 3909 1772 4009 2142 
Q 4109 2513 4109 2881 
Q 4109 3528 3796 3883 
Q 3484 4238 2919 4238 
z
" transform="scale(0.015625)"/>
      <path id="DejaVuSans-Oblique-4c" d="M 1172 4863 
L 1747 4863 
L 1606 4134 
L 1031 4134 
L 1172 4863 
z
M 909 3500 
L 1484 3500 
L 800 0 
L 225 0 
L 909 3500 
z
" transform="scale(0.015625)"/>
     </defs>
     <use xlink:href="#DejaVuSans-Oblique-26" transform="translate(0 0.609375)"/>
     <use xlink:href="#DejaVuSans-Oblique-55" transform="translate(69.824219 -14.390576) scale(0.7)"/>
     <use xlink:href="#DejaVuSans-Oblique-52" transform="translate(98.603516 -14.390576) scale(0.7)"/>
     <use xlink:href="#DejaVuSans-Oblique-52" transform="translate(141.430664 -14.390576) scale(0.7)"/>
     <use xlink:href="#DejaVuSans-Oblique-50" transform="translate(184.257812 -14.390576) scale(0.7)"/>
     <use xlink:href="#DejaVuSans-2b8" transform="translate(335.830403 30.015625)"/>
     <use xlink:href="#DejaVuSans-Oblique-37" transform="translate(271.41634 0.609375)"/>
     <use xlink:href="#DejaVuSans-Oblique-55" transform="translate(335.654622 -14.390576) scale(0.7)"/>
     <use xlink:href="#DejaVuSans-Oblique-52" transform="translate(364.433918 -14.390576) scale(0.7)"/>
     <use xlink:href="#DejaVuSans-Oblique-52" transform="translate(407.261067 -14.390576) scale(0.7)"/>
     <use xlink:href="#DejaVuSans-Oblique-50" transform="translate(450.088215 -14.390576) scale(0.7)"/>
     <use xlink:href="#DejaVuSans-20" transform="translate(540.493489 0.609375)"/>
     <use xlink:href="#DejaVuSansDisplay-10" transform="translate(643.764973 0.609375)"/>
     <use xlink:href="#DejaVuSans-Oblique-34" transform="translate(739.028645 0.609375)"/>
     <use xlink:href="#DejaVuSans-Oblique-4c" transform="translate(817.739583 -14.390576) scale(0.7)"/>
    </g>
   </g>
   <g id="patch_2">
    <path d="M 104.961 52.48 
C 105.677048 52.48 106.363866 52.195511 106.870188 51.689188 
C 107.376511 51.182866 107.661 50.496048 107.661 49.78 
C 107.661 49.063952 107.376511 48.377134 106.870188 47.870812 
C 106.363866 47.364489 105.677048 47.08 104.961 47.08 
C 104.244952 47.08 103.558134 47.364489 103.051812 47.870812 
C 102.545489 48.377134 102.261 49.063952 102.261 49.78 
C 102.261 50.496048 102.545489 51.182866 103.051812 51.689188 
C 103.558134 52.195511 104.244952 52.48 104.961 52.48 
z
" clip-path="url(#pf69f018362)" style="stroke: #000000; stroke-width: 2; stroke-linejoin: miter"/>
   </g>
   <g id="text_3">
    <!-- $T_{room}$ -->
    <g transform="translate(111.261 53.485) scale(0.13 -0.13)">
     <use xlink:href="#DejaVuSans-Oblique-37" transform="translate(0 0.09375)"/>
     <use xlink:href="#DejaVuSans-Oblique-55" transform="translate(61.083984 -14.906201) scale(0.7)"/>
     <use xlink:href="#DejaVuSans-Oblique-52" transform="translate(89.863281 -14.906201) scale(0.7)"/>
     <use xlink:href="#DejaVuSans-Oblique-52" transform="translate(132.69043 -14.906201) scale(0.7)"/>
     <use xlink:href="#DejaVuSans-Oblique-50" transform="translate(175.517578 -14.906201) scale(0.7)"/>
    </g>
   </g>
  </g>
 </g>
 <defs>
  <clipPath id="pf69f018362">
   <rect x="0" y="0" width="156.657" height="163.9"/>
  </clipPath>
 </defs>
</svg>
