<?xml version="1.0" encoding="utf-8" standalone="no"?>
<!DOCTYPE svg PUBLIC "-//W3C//DTD SVG 1.1//EN"
  "http://www.w3.org/Graphics/SVG/1.1/DTD/svg11.dtd">
<svg xmlns:xlink="http://www.w3.org/1999/xlink" width="215.888828pt" height="135.1pt" viewBox="0 0 215.888828 135.1" xmlns="http://www.w3.org/2000/svg" version="1.1">
 <metadata>
  <rdf:RDF xmlns:dc="http://purl.org/dc/elements/1.1/" xmlns:cc="http://creativecommons.org/ns#" xmlns:rdf="http://www.w3.org/1999/02/22-rdf-syntax-ns#">
   <cc:Work>
    <dc:type rdf:resource="http://purl.org/dc/dcmitype/StillImage"/>
    <dc:date>2026-06-24T19:16:03.753896</dc:date>
    <dc:format>image/svg+xml</dc:format>
    <dc:creator>
     <cc:Agent>
      <dc:title>Matplotlib v3.11.0, https://matplotlib.org/</dc:title>
     </cc:Agent>
    </dc:creator>
   </cc:Work>
  </rdf:RDF>
 </metadata>
 <defs>
  <style type="text/css">*{stroke-linejoin: round; stroke-linecap: butt}</style>
 </defs>
 <g id="figure_1">
  <g id="patch_1">
   <path d="M 0 135.1 
L 215.888828 135.1 
L 215.888828 0 
L 0 0 
L 0 135.1 
z
" style="fill: none"/>
  </g>
  <g id="axes_1">
   <g id="patch_2">
    <path d="M 22.68 96.58 
C 27.453656 96.58 32.032438 94.683406 35.407922 91.307922 
C 38.783406 87.932438 40.68 83.353656 40.68 78.58 
C 40.68 73.806344 38.783406 69.227562 35.407922 65.852078 
C 32.032438 62.476594 27.453656 60.58 22.68 60.58 
C 17.906344 60.58 13.327562 62.476594 9.952078 65.852078 
C 6.576594 69.227562 4.68 73.806344 4.68 78.58 
C 4.68 83.353656 6.576594 87.932438 9.952078 91.307922 
C 13.327562 94.683406 17.906344 96.58 22.68 96.58 
L 22.68 96.58 
z
" clip-path="url(#pe510018b75)" style="fill: none; stroke: #000000; stroke-width: 2; stroke-linejoin: miter"/>
   </g>
   <g id="line2d_1">
    <path d="M 22.68 114.58 
L 22.68 96.58 
L 22.68 96.58 
M 22.68 60.58 
L 22.68 60.58 
L 22.68 42.58 
" clip-path="url(#pe510018b75)" style="fill: none; stroke: #000000; stroke-width: 2; stroke-linecap: round"/>
   </g>
   <g id="line2d_2">
    <path d="M 26.28 87.58 
L 19.08 87.58 
" clip-path="url(#pe510018b75)" style="fill: none; stroke: #000000; stroke-width: 2; stroke-linecap: round"/>
   </g>
   <g id="line2d_3">
    <path d="M 22.68 73.18 
L 22.68 65.98 
" clip-path="url(#pe510018b75)" style="fill: none; stroke: #000000; stroke-width: 2; stroke-linecap: round"/>
   </g>
   <g id="line2d_4">
    <path d="M 26.28 69.58 
L 19.08 69.58 
" clip-path="url(#pe510018b75)" style="fill: none; stroke: #000000; stroke-width: 2; stroke-linecap: round"/>
   </g>
   <g id="line2d_5">
    <path d="M 22.68 42.58 
L 33.48 42.58 
L 44.28 42.58 
" clip-path="url(#pe510018b75)" style="fill: none; stroke: #000000; stroke-width: 2; stroke-linecap: round"/>
   </g>
   <g id="line2d_6">
    <path d="M 44.28 42.58 
L 62.28 42.58 
L 65.28 33.58 
L 71.28 51.58 
L 77.28 33.58 
L 83.28 51.58 
L 89.28 33.58 
L 95.28 51.58 
L 98.28 42.58 
L 116.28 42.58 
" clip-path="url(#pe510018b75)" style="fill: none; stroke: #000000; stroke-width: 2; stroke-linecap: round"/>
   </g>
   <g id="line2d_7">
    <path d="M 116.28 42.58 
L 116.28 71.74 
M 125.28 71.74 
L 107.28 71.74 
M 125.28 78.22 
L 107.28 78.22 
M 116.28 78.22 
L 116.28 107.38 
" clip-path="url(#pe510018b75)" style="fill: none; stroke: #000000; stroke-width: 2; stroke-linecap: round"/>
   </g>
   <g id="line2d_8">
    <path d="M 116.28 107.38 
L 116.28 121.78 
L 107.28 121.78 
L 125.28 121.78 
M 109.98 126.1 
L 122.58 126.1 
M 114.48 130.42 
L 118.08 130.42 
" clip-path="url(#pe510018b75)" style="fill: none; stroke: #000000; stroke-width: 2; stroke-linecap: round"/>
   </g>
   <g id="line2d_9">
    <path d="M 116.28 42.58 
L 134.28 42.58 
L 137.28 33.58 
L 143.28 51.58 
L 149.28 33.58 
L 155.28 51.58 
L 161.28 33.58 
L 167.28 51.58 
L 170.28 42.58 
L 188.28 42.58 
" clip-path="url(#pe510018b75)" style="fill: none; stroke: #000000; stroke-width: 2; stroke-linecap: round"/>
   </g>
   <g id="line2d_10">
    <path d="M 188.28 42.58 
L 188.28 71.74 
M 197.28 71.74 
L 179.28 71.74 
M 197.28 78.22 
L 179.28 78.22 
M 188.28 78.22 
L 188.28 107.38 
" clip-path="url(#pe510018b75)" style="fill: none; stroke: #000000; stroke-width: 2; stroke-linecap: round"/>
   </g>
   <g id="line2d_11">
    <path d="M 188.28 107.38 
L 188.28 121.78 
L 179.28 121.78 
L 197.28 121.78 
M 181.98 126.1 
L 194.58 126.1 
M 186.48 130.42 
L 190.08 130.42 
" clip-path="url(#pe510018b75)" style="fill: none; stroke: #000000; stroke-width: 2; stroke-linecap: round"/>
   </g>
   <g id="line2d_12">
    <path d="M 22.68 114.58 
L 22.68 118.18 
L 22.68 121.78 
" clip-path="url(#pe510018b75)" style="fill: none; stroke: #000000; stroke-width: 2; stroke-linecap: round"/>
   </g>
   <g id="text_1">
    <!-- $T_{src}$ -->
    <g transform="translate(12.6 127.6) scale(0.12 -0.12)">
     <defs>
      <path id="DejaVuSans-Oblique-37" d="M 378 4666 
L 4325 4666 
L 4225 4134 
L 2559 4134 
L 1759 0 
L 1125 0 
L 1925 4134 
L 275 4134 
L 378 4666 
z
" transform="scale(0.015625)"/>
      <path id="DejaVuSans-Oblique-56" d="M 3200 3397 
L 3091 2853 
Q 2863 2978 2609 3040 
Q 2356 3103 2088 3103 
Q 1634 3103 1373 2948 
Q 1113 2794 1113 2528 
Q 1113 2219 1719 2053 
Q 1766 2041 1788 2034 
L 1972 1978 
Q 2547 1819 2739 1644 
Q 2931 1469 2931 1166 
Q 2931 609 2489 259 
Q 2047 -91 1331 -91 
Q 1053 -91 747 -37 
Q 441 16 72 128 
L 184 722 
Q 500 559 806 475 
Q 1113 391 1394 391 
Q 1816 391 2080 572 
Q 2344 753 2344 1031 
Q 2344 1331 1650 1516 
L 1591 1531 
L 1394 1581 
Q 956 1697 753 1886 
Q 550 2075 550 2369 
Q 550 2928 970 3256 
Q 1391 3584 2113 3584 
Q 2397 3584 2667 3537 
Q 2938 3491 3200 3397 
z
" transform="scale(0.015625)"/>
      <path id="DejaVuSans-Oblique-55" d="M 2853 2969 
Q 2766 3016 2653 3041 
Q 2541 3066 2413 3066 
Q 1953 3066 1609 2717 
Q 1266 2369 1153 1784 
L 800 0 
L 225 0 
L 909 3500 
L 1484 3500 
L 1375 2956 
Q 1603 3259 1920 3421 
Q 2238 3584 2597 3584 
Q 2691 3584 2781 3573 
Q 2872 3563 2963 3538 
L 2853 2969 
z
" transform="scale(0.015625)"/>
      <path id="DejaVuSans-Oblique-46" d="M 3431 3366 
L 3316 2797 
Q 3109 2947 2876 3022 
Q 2644 3097 2394 3097 
Q 2119 3097 1870 3000 
Q 1622 2903 1453 2725 
Q 1184 2453 1037 2087 
Q 891 1722 891 1331 
Q 891 859 1127 628 
Q 1363 397 1844 397 
Q 2081 397 2348 469 
Q 2616 541 2906 684 
L 2797 116 
Q 2547 13 2283 -39 
Q 2019 -91 1741 -91 
Q 1044 -91 669 257 
Q 294 606 294 1253 
Q 294 1797 489 2255 
Q 684 2713 1069 3078 
Q 1331 3328 1684 3456 
Q 2038 3584 2456 3584 
Q 2700 3584 2940 3529 
Q 3181 3475 3431 3366 
z
" transform="scale(0.015625)"/>
     </defs>
     <use xlink:href="#DejaVuSans-Oblique-37" transform="translate(0 0.09375)"/>
     <use xlink:href="#DejaVuSans-Oblique-56" transform="translate(61.083984 -14.906201) scale(0.7)"/>
     <use xlink:href="#DejaVuSans-Oblique-55" transform="translate(97.553711 -14.906201) scale(0.7)"/>
     <use xlink:href="#DejaVuSans-Oblique-46" transform="translate(126.333008 -14.906201) scale(0.7)"/>
    </g>
   </g>
   <g id="text_2">
    <!-- $H_{out}$ -->
    <g transform="translate(68.7 64.6) scale(0.12 -0.12)">
     <defs>
      <path id="DejaVuSans-Oblique-2b" d="M 1081 4666 
L 1716 4666 
L 1344 2753 
L 3634 2753 
L 4006 4666 
L 4641 4666 
L 3731 0 
L 3097 0 
L 3531 2222 
L 1241 2222 
L 806 0 
L 172 0 
L 1081 4666 
z
" transform="scale(0.015625)"/>
      <path id="DejaVuSans-Oblique-52" d="M 1625 -91 
Q 1009 -91 651 289 
Q 294 669 294 1325 
Q 294 1706 417 2101 
Q 541 2497 738 2766 
Q 1047 3184 1428 3384 
Q 1809 3584 2291 3584 
Q 2888 3584 3255 3212 
Q 3622 2841 3622 2241 
Q 3622 1825 3500 1412 
Q 3378 1000 3181 728 
Q 2875 309 2494 109 
Q 2113 -91 1625 -91 
z
M 891 1344 
Q 891 869 1089 633 
Q 1288 397 1691 397 
Q 2269 397 2648 901 
Q 3028 1406 3028 2181 
Q 3028 2634 2825 2865 
Q 2622 3097 2228 3097 
Q 1903 3097 1650 2945 
Q 1397 2794 1197 2484 
Q 1050 2253 970 1956 
Q 891 1659 891 1344 
z
" transform="scale(0.015625)"/>
      <path id="DejaVuSans-Oblique-58" d="M 428 1388 
L 838 3500 
L 1416 3500 
L 1006 1409 
Q 975 1256 961 1147 
Q 947 1038 947 966 
Q 947 700 1109 554 
Q 1272 409 1569 409 
Q 2031 409 2368 721 
Q 2706 1034 2809 1563 
L 3194 3500 
L 3769 3500 
L 3091 0 
L 2516 0 
L 2631 550 
Q 2388 244 2052 76 
Q 1716 -91 1338 -91 
Q 878 -91 622 161 
Q 366 413 366 863 
Q 366 956 381 1097 
Q 397 1238 428 1388 
z
" transform="scale(0.015625)"/>
      <path id="DejaVuSans-Oblique-57" d="M 2706 3500 
L 2619 3053 
L 1472 3053 
L 1100 1153 
Q 1081 1047 1072 975 
Q 1063 903 1063 863 
Q 1063 663 1183 572 
Q 1303 481 1569 481 
L 2150 481 
L 2053 0 
L 1503 0 
Q 991 0 739 200 
Q 488 400 488 806 
Q 488 878 497 964 
Q 506 1050 525 1153 
L 897 3053 
L 409 3053 
L 500 3500 
L 978 3500 
L 1172 4494 
L 1747 4494 
L 1556 3500 
L 2706 3500 
z
" transform="scale(0.015625)"/>
     </defs>
     <use xlink:href="#DejaVuSans-Oblique-2b" transform="translate(0 0.09375)"/>
     <use xlink:href="#DejaVuSans-Oblique-52" transform="translate(75.195312 -14.906201) scale(0.7)"/>
     <use xlink:href="#DejaVuSans-Oblique-58" transform="translate(118.022461 -14.906201) scale(0.7)"/>
     <use xlink:href="#DejaVuSans-Oblique-57" transform="translate(162.387695 -14.906201) scale(0.7)"/>
    </g>
   </g>
   <g id="text_3">
    <!-- $C_{wall}$ -->
    <g transform="translate(103.56 120.52) scale(0.12 -0.12)">
     <defs>
      <path id="DejaVuSans-Oblique-26" d="M 4447 4306 
L 4319 3641 
Q 4019 3944 3683 4091 
Q 3347 4238 2956 4238 
Q 2422 4238 2017 3981 
Q 1613 3725 1319 3200 
Q 1131 2863 1032 2486 
Q 934 2109 934 1728 
Q 934 1091 1264 756 
Q 1594 422 2222 422 
Q 2656 422 3056 561 
Q 3456 700 3834 978 
L 3688 231 
Q 3316 72 2936 -9 
Q 2556 -91 2175 -91 
Q 1278 -91 773 396 
Q 269 884 269 1753 
Q 269 2309 461 2846 
Q 653 3384 1013 3828 
Q 1394 4300 1883 4525 
Q 2372 4750 3022 4750 
Q 3422 4750 3780 4639 
Q 4138 4528 4447 4306 
z
" transform="scale(0.015625)"/>
      <path id="DejaVuSans-Oblique-5a" d="M 544 3500 
L 1113 3500 
L 1259 684 
L 2566 3500 
L 3231 3500 
L 3425 684 
L 4666 3500 
L 5241 3500 
L 3641 0 
L 2969 0 
L 2797 2900 
L 1459 0 
L 781 0 
L 544 3500 
z
" transform="scale(0.015625)"/>
      <path id="DejaVuSans-Oblique-44" d="M 3438 1997 
L 3047 0 
L 2472 0 
L 2578 531 
Q 2325 219 2001 64 
Q 1678 -91 1281 -91 
Q 834 -91 548 182 
Q 263 456 263 884 
Q 263 1497 752 1853 
Q 1241 2209 2100 2209 
L 2900 2209 
L 2931 2363 
Q 2938 2388 2941 2417 
Q 2944 2447 2944 2509 
Q 2944 2788 2717 2942 
Q 2491 3097 2081 3097 
Q 1800 3097 1504 3025 
Q 1209 2953 897 2809 
L 997 3341 
Q 1322 3463 1633 3523 
Q 1944 3584 2234 3584 
Q 2853 3584 3176 3315 
Q 3500 3047 3500 2534 
Q 3500 2431 3484 2292 
Q 3469 2153 3438 1997 
z
M 2816 1759 
L 2241 1759 
Q 1534 1759 1195 1570 
Q 856 1381 856 984 
Q 856 709 1029 553 
Q 1203 397 1509 397 
Q 1978 397 2328 733 
Q 2678 1069 2791 1631 
L 2816 1759 
z
" transform="scale(0.015625)"/>
      <path id="DejaVuSans-Oblique-4f" d="M 1172 4863 
L 1747 4863 
L 800 0 
L 225 0 
L 1172 4863 
z
" transform="scale(0.015625)"/>
     </defs>
     <use xlink:href="#DejaVuSans-Oblique-26" transform="translate(0 0.78125)"/>
     <use xlink:href="#DejaVuSans-Oblique-5a" transform="translate(69.824219 -14.218701) scale(0.7)"/>
     <use xlink:href="#DejaVuSans-Oblique-44" transform="translate(127.075195 -14.218701) scale(0.7)"/>
     <use xlink:href="#DejaVuSans-Oblique-4f" transform="translate(169.970703 -14.218701) scale(0.7)"/>
     <use xlink:href="#DejaVuSans-Oblique-4f" transform="translate(189.418945 -14.218701) scale(0.7)"/>
    </g>
   </g>
   <g id="text_4">
    <!-- $H_{in}$ -->
    <g transform="translate(143.76 64.66) scale(0.12 -0.12)">
     <defs>
      <path id="DejaVuSans-Oblique-4c" d="M 1172 4863 
L 1747 4863 
L 1606 4134 
L 1031 4134 
L 1172 4863 
z
M 909 3500 
L 1484 3500 
L 800 0 
L 225 0 
L 909 3500 
z
" transform="scale(0.015625)"/>
      <path id="DejaVuSans-Oblique-51" d="M 3566 2113 
L 3156 0 
L 2578 0 
L 2988 2091 
Q 3016 2238 3031 2350 
Q 3047 2463 3047 2528 
Q 3047 2791 2881 2937 
Q 2716 3084 2419 3084 
Q 1956 3084 1622 2776 
Q 1288 2469 1184 1941 
L 800 0 
L 225 0 
L 903 3500 
L 1478 3500 
L 1363 2950 
Q 1603 3253 1940 3418 
Q 2278 3584 2650 3584 
Q 3113 3584 3367 3334 
Q 3622 3084 3622 2631 
Q 3622 2519 3608 2391 
Q 3594 2263 3566 2113 
z
" transform="scale(0.015625)"/>
     </defs>
     <use xlink:href="#DejaVuSans-Oblique-2b" transform="translate(0 0.09375)"/>
     <use xlink:href="#DejaVuSans-Oblique-4c" transform="translate(75.195312 -14.906201) scale(0.7)"/>
     <use xlink:href="#DejaVuSans-Oblique-51" transform="translate(94.643555 -14.906201) scale(0.7)"/>
    </g>
   </g>
   <g id="text_5">
    <!-- $C_{room}$ -->
    <g transform="translate(172.92 36.52) scale(0.12 -0.12)">
     <defs>
      <path id="DejaVuSans-Oblique-50" d="M 5747 2113 
L 5338 0 
L 4763 0 
L 5166 2094 
Q 5191 2228 5203 2325 
Q 5216 2422 5216 2491 
Q 5216 2772 5059 2928 
Q 4903 3084 4622 3084 
Q 4203 3084 3875 2770 
Q 3547 2456 3450 1953 
L 3066 0 
L 2491 0 
L 2900 2094 
Q 2925 2209 2937 2307 
Q 2950 2406 2950 2484 
Q 2950 2769 2794 2926 
Q 2638 3084 2363 3084 
Q 1938 3084 1609 2770 
Q 1281 2456 1184 1953 
L 800 0 
L 225 0 
L 909 3500 
L 1484 3500 
L 1375 2956 
Q 1609 3263 1923 3423 
Q 2238 3584 2597 3584 
Q 2978 3584 3223 3384 
Q 3469 3184 3519 2828 
Q 3781 3197 4126 3390 
Q 4472 3584 4856 3584 
Q 5306 3584 5551 3325 
Q 5797 3066 5797 2591 
Q 5797 2488 5784 2364 
Q 5772 2241 5747 2113 
z
" transform="scale(0.015625)"/>
     </defs>
     <use xlink:href="#DejaVuSans-Oblique-26" transform="translate(0 0.78125)"/>
     <use xlink:href="#DejaVuSans-Oblique-55" transform="translate(69.824219 -14.218701) scale(0.7)"/>
     <use xlink:href="#DejaVuSans-Oblique-52" transform="translate(98.603516 -14.218701) scale(0.7)"/>
     <use xlink:href="#DejaVuSans-Oblique-52" transform="translate(141.430664 -14.218701) scale(0.7)"/>
     <use xlink:href="#DejaVuSans-Oblique-50" transform="translate(184.257812 -14.218701) scale(0.7)"/>
    </g>
   </g>
   <g id="text_6">
    <!-- N=1: classic 2R2C heavy wall -->
    <g style="fill: #000080" transform="translate(52.671172 13.215313) scale(0.11 -0.11)">
     <defs>
      <path id="DejaVuSans-31" d="M 628 4666 
L 1478 4666 
L 3547 763 
L 3547 4666 
L 4159 4666 
L 4159 0 
L 3309 0 
L 1241 3903 
L 1241 0 
L 628 0 
L 628 4666 
z
" transform="scale(0.015625)"/>
      <path id="DejaVuSans-20" d="M 678 2906 
L 4684 2906 
L 4684 2381 
L 678 2381 
L 678 2906 
z
M 678 1631 
L 4684 1631 
L 4684 1100 
L 678 1100 
L 678 1631 
z
" transform="scale(0.015625)"/>
      <path id="DejaVuSans-14" d="M 794 531 
L 1825 531 
L 1825 4091 
L 703 3866 
L 703 4441 
L 1819 4666 
L 2450 4666 
L 2450 531 
L 3481 531 
L 3481 0 
L 794 0 
L 794 531 
z
" transform="scale(0.015625)"/>
      <path id="DejaVuSans-1d" d="M 750 794 
L 1409 794 
L 1409 0 
L 750 0 
L 750 794 
z
M 750 3309 
L 1409 3309 
L 1409 2516 
L 750 2516 
L 750 3309 
z
" transform="scale(0.015625)"/>
      <path id="DejaVuSans-3" transform="scale(0.015625)"/>
      <path id="DejaVuSans-46" d="M 3122 3366 
L 3122 2828 
Q 2878 2963 2633 3030 
Q 2388 3097 2138 3097 
Q 1578 3097 1268 2742 
Q 959 2388 959 1747 
Q 959 1106 1268 751 
Q 1578 397 2138 397 
Q 2388 397 2633 464 
Q 2878 531 3122 666 
L 3122 134 
Q 2881 22 2623 -34 
Q 2366 -91 2075 -91 
Q 1284 -91 818 406 
Q 353 903 353 1747 
Q 353 2603 823 3093 
Q 1294 3584 2113 3584 
Q 2378 3584 2631 3529 
Q 2884 3475 3122 3366 
z
" transform="scale(0.015625)"/>
      <path id="DejaVuSans-4f" d="M 603 4863 
L 1178 4863 
L 1178 0 
L 603 0 
L 603 4863 
z
" transform="scale(0.015625)"/>
      <path id="DejaVuSans-44" d="M 2194 1759 
Q 1497 1759 1228 1600 
Q 959 1441 959 1056 
Q 959 750 1161 570 
Q 1363 391 1709 391 
Q 2188 391 2477 730 
Q 2766 1069 2766 1631 
L 2766 1759 
L 2194 1759 
z
M 3341 1997 
L 3341 0 
L 2766 0 
L 2766 531 
Q 2569 213 2275 61 
Q 1981 -91 1556 -91 
Q 1019 -91 701 211 
Q 384 513 384 1019 
Q 384 1609 779 1909 
Q 1175 2209 1959 2209 
L 2766 2209 
L 2766 2266 
Q 2766 2663 2505 2880 
Q 2244 3097 1772 3097 
Q 1472 3097 1187 3025 
Q 903 2953 641 2809 
L 641 3341 
Q 956 3463 1253 3523 
Q 1550 3584 1831 3584 
Q 2591 3584 2966 3190 
Q 3341 2797 3341 1997 
z
" transform="scale(0.015625)"/>
      <path id="DejaVuSans-56" d="M 2834 3397 
L 2834 2853 
Q 2591 2978 2328 3040 
Q 2066 3103 1784 3103 
Q 1356 3103 1142 2972 
Q 928 2841 928 2578 
Q 928 2378 1081 2264 
Q 1234 2150 1697 2047 
L 1894 2003 
Q 2506 1872 2764 1633 
Q 3022 1394 3022 966 
Q 3022 478 2636 193 
Q 2250 -91 1575 -91 
Q 1294 -91 989 -36 
Q 684 19 347 128 
L 347 722 
Q 666 556 975 473 
Q 1284 391 1588 391 
Q 1994 391 2212 530 
Q 2431 669 2431 922 
Q 2431 1156 2273 1281 
Q 2116 1406 1581 1522 
L 1381 1569 
Q 847 1681 609 1914 
Q 372 2147 372 2553 
Q 372 3047 722 3315 
Q 1072 3584 1716 3584 
Q 2034 3584 2315 3537 
Q 2597 3491 2834 3397 
z
" transform="scale(0.015625)"/>
      <path id="DejaVuSans-4c" d="M 603 3500 
L 1178 3500 
L 1178 0 
L 603 0 
L 603 3500 
z
M 603 4863 
L 1178 4863 
L 1178 4134 
L 603 4134 
L 603 4863 
z
" transform="scale(0.015625)"/>
      <path id="DejaVuSans-15" d="M 1228 531 
L 3431 531 
L 3431 0 
L 469 0 
L 469 531 
Q 828 903 1448 1529 
Q 2069 2156 2228 2338 
Q 2531 2678 2651 2914 
Q 2772 3150 2772 3378 
Q 2772 3750 2511 3984 
Q 2250 4219 1831 4219 
Q 1534 4219 1204 4116 
Q 875 4013 500 3803 
L 500 4441 
Q 881 4594 1212 4672 
Q 1544 4750 1819 4750 
Q 2544 4750 2975 4387 
Q 3406 4025 3406 3419 
Q 3406 3131 3298 2873 
Q 3191 2616 2906 2266 
Q 2828 2175 2409 1742 
Q 1991 1309 1228 531 
z
" transform="scale(0.015625)"/>
      <path id="DejaVuSans-35" d="M 2841 2188 
Q 3044 2119 3236 1894 
Q 3428 1669 3622 1275 
L 4263 0 
L 3584 0 
L 2988 1197 
Q 2756 1666 2539 1819 
Q 2322 1972 1947 1972 
L 1259 1972 
L 1259 0 
L 628 0 
L 628 4666 
L 2053 4666 
Q 2853 4666 3247 4331 
Q 3641 3997 3641 3322 
Q 3641 2881 3436 2590 
Q 3231 2300 2841 2188 
z
M 1259 4147 
L 1259 2491 
L 2053 2491 
Q 2509 2491 2742 2702 
Q 2975 2913 2975 3322 
Q 2975 3731 2742 3939 
Q 2509 4147 2053 4147 
L 1259 4147 
z
" transform="scale(0.015625)"/>
      <path id="DejaVuSans-26" d="M 4122 4306 
L 4122 3641 
Q 3803 3938 3442 4084 
Q 3081 4231 2675 4231 
Q 1875 4231 1450 3742 
Q 1025 3253 1025 2328 
Q 1025 1406 1450 917 
Q 1875 428 2675 428 
Q 3081 428 3442 575 
Q 3803 722 4122 1019 
L 4122 359 
Q 3791 134 3420 21 
Q 3050 -91 2638 -91 
Q 1578 -91 968 557 
Q 359 1206 359 2328 
Q 359 3453 968 4101 
Q 1578 4750 2638 4750 
Q 3056 4750 3426 4639 
Q 3797 4528 4122 4306 
z
" transform="scale(0.015625)"/>
      <path id="DejaVuSans-4b" d="M 3513 2113 
L 3513 0 
L 2938 0 
L 2938 2094 
Q 2938 2591 2744 2837 
Q 2550 3084 2163 3084 
Q 1697 3084 1428 2787 
Q 1159 2491 1159 1978 
L 1159 0 
L 581 0 
L 581 4863 
L 1159 4863 
L 1159 2956 
Q 1366 3272 1645 3428 
Q 1925 3584 2291 3584 
Q 2894 3584 3203 3211 
Q 3513 2838 3513 2113 
z
" transform="scale(0.015625)"/>
      <path id="DejaVuSans-48" d="M 3597 1894 
L 3597 1613 
L 953 1613 
Q 991 1019 1311 708 
Q 1631 397 2203 397 
Q 2534 397 2845 478 
Q 3156 559 3463 722 
L 3463 178 
Q 3153 47 2828 -22 
Q 2503 -91 2169 -91 
Q 1331 -91 842 396 
Q 353 884 353 1716 
Q 353 2575 817 3079 
Q 1281 3584 2069 3584 
Q 2775 3584 3186 3129 
Q 3597 2675 3597 1894 
z
M 3022 2063 
Q 3016 2534 2758 2815 
Q 2500 3097 2075 3097 
Q 1594 3097 1305 2825 
Q 1016 2553 972 2059 
L 3022 2063 
z
" transform="scale(0.015625)"/>
      <path id="DejaVuSans-59" d="M 191 3500 
L 800 3500 
L 1894 563 
L 2988 3500 
L 3597 3500 
L 2284 0 
L 1503 0 
L 191 3500 
z
" transform="scale(0.015625)"/>
      <path id="DejaVuSans-5c" d="M 2059 -325 
Q 1816 -950 1584 -1140 
Q 1353 -1331 966 -1331 
L 506 -1331 
L 506 -850 
L 844 -850 
Q 1081 -850 1212 -737 
Q 1344 -625 1503 -206 
L 1606 56 
L 191 3500 
L 800 3500 
L 1894 763 
L 2988 3500 
L 3597 3500 
L 2059 -325 
z
" transform="scale(0.015625)"/>
      <path id="DejaVuSans-5a" d="M 269 3500 
L 844 3500 
L 1563 769 
L 2278 3500 
L 2956 3500 
L 3675 769 
L 4391 3500 
L 4966 3500 
L 4050 0 
L 3372 0 
L 2619 2869 
L 1863 0 
L 1184 0 
L 269 3500 
z
" transform="scale(0.015625)"/>
     </defs>
     <use xlink:href="#DejaVuSans-31"/>
     <use xlink:href="#DejaVuSans-20" transform="translate(74.8125 0)"/>
     <use xlink:href="#DejaVuSans-14" transform="translate(158.609375 0)"/>
     <use xlink:href="#DejaVuSans-1d" transform="translate(222.234375 0)"/>
     <use xlink:href="#DejaVuSans-3" transform="translate(255.921875 0)"/>
     <use xlink:href="#DejaVuSans-46" transform="translate(287.703125 0)"/>
     <use xlink:href="#DejaVuSans-4f" transform="translate(342.6875 0)"/>
     <use xlink:href="#DejaVuSans-44" transform="translate(370.46875 0)"/>
     <use xlink:href="#DejaVuSans-56" transform="translate(431.75 0)"/>
     <use xlink:href="#DejaVuSans-56" transform="translate(483.84375 0)"/>
     <use xlink:href="#DejaVuSans-4c" transform="translate(535.9375 0)"/>
     <use xlink:href="#DejaVuSans-46" transform="translate(563.71875 0)"/>
     <use xlink:href="#DejaVuSans-3" transform="translate(618.703125 0)"/>
     <use xlink:href="#DejaVuSans-15" transform="translate(650.484375 0)"/>
     <use xlink:href="#DejaVuSans-35" transform="translate(714.109375 0)"/>
     <use xlink:href="#DejaVuSans-15" transform="translate(783.59375 0)"/>
     <use xlink:href="#DejaVuSans-26" transform="translate(847.21875 0)"/>
     <use xlink:href="#DejaVuSans-3" transform="translate(917.046875 0)"/>
     <use xlink:href="#DejaVuSans-4b" transform="translate(948.828125 0)"/>
     <use xlink:href="#DejaVuSans-48" transform="translate(1012.203125 0)"/>
     <use xlink:href="#DejaVuSans-44" transform="translate(1073.734375 0)"/>
     <use xlink:href="#DejaVuSans-59" transform="translate(1135.015625 0)"/>
     <use xlink:href="#DejaVuSans-5c" transform="translate(1194.203125 0)"/>
     <use xlink:href="#DejaVuSans-3" transform="translate(1253.390625 0)"/>
     <use xlink:href="#DejaVuSans-5a" transform="translate(1285.171875 0)"/>
     <use xlink:href="#DejaVuSans-44" transform="translate(1366.953125 0)"/>
     <use xlink:href="#DejaVuSans-4f" transform="translate(1428.234375 0)"/>
     <use xlink:href="#DejaVuSans-4f" transform="translate(1456.015625 0)"/>
    </g>
   </g>
   <g id="patch_3">
    <path d="M 116.28 45.28 
C 116.996048 45.28 117.682866 44.995511 118.189188 44.489188 
C 118.695511 43.982866 118.98 43.296048 118.98 42.58 
C 118.98 41.863952 118.695511 41.177134 118.189188 40.670812 
C 117.682866 40.164489 116.996048 39.88 116.28 39.88 
C 115.563952 39.88 114.877134 40.164489 114.370812 40.670812 
C 113.864489 41.177134 113.58 41.863952 113.58 42.58 
C 113.58 43.296048 113.864489 43.982866 114.370812 44.489188 
C 114.877134 44.995511 115.563952 45.28 116.28 45.28 
z
" clip-path="url(#pe510018b75)" style="stroke: #000000; stroke-width: 2; stroke-linejoin: miter"/>
   </g>
   <g id="text_7">
    <!-- $T_{wall}$ -->
    <g transform="translate(104.1 31.9) scale(0.12 -0.12)">
     <use xlink:href="#DejaVuSans-Oblique-37" transform="translate(0 0.09375)"/>
     <use xlink:href="#DejaVuSans-Oblique-5a" transform="translate(61.083984 -14.906201) scale(0.7)"/>
     <use xlink:href="#DejaVuSans-Oblique-44" transform="translate(118.334961 -14.906201) scale(0.7)"/>
     <use xlink:href="#DejaVuSans-Oblique-4f" transform="translate(161.230469 -14.906201) scale(0.7)"/>
     <use xlink:href="#DejaVuSans-Oblique-4f" transform="translate(180.678711 -14.906201) scale(0.7)"/>
    </g>
   </g>
   <g id="patch_4">
    <path d="M 188.28 45.28 
C 188.996048 45.28 189.682866 44.995511 190.189188 44.489188 
C 190.695511 43.982866 190.98 43.296048 190.98 42.58 
C 190.98 41.863952 190.695511 41.177134 190.189188 40.670812 
C 189.682866 40.164489 188.996048 39.88 188.28 39.88 
C 187.563952 39.88 186.877134 40.164489 186.370812 40.670812 
C 185.864489 41.177134 185.58 41.863952 185.58 42.58 
C 185.58 43.296048 185.864489 43.982866 186.370812 44.489188 
C 186.877134 44.995511 187.563952 45.28 188.28 45.28 
z
" clip-path="url(#pe510018b75)" style="stroke: #000000; stroke-width: 2; stroke-linejoin: miter"/>
   </g>
   <g id="text_8">
    <!-- $T_{room}$ -->
    <g transform="translate(173.46 31.9) scale(0.12 -0.12)">
     <use xlink:href="#DejaVuSans-Oblique-37" transform="translate(0 0.09375)"/>
     <use xlink:href="#DejaVuSans-Oblique-55" transform="translate(61.083984 -14.906201) scale(0.7)"/>
     <use xlink:href="#DejaVuSans-Oblique-52" transform="translate(89.863281 -14.906201) scale(0.7)"/>
     <use xlink:href="#DejaVuSans-Oblique-52" transform="translate(132.69043 -14.906201) scale(0.7)"/>
     <use xlink:href="#DejaVuSans-Oblique-50" transform="translate(175.517578 -14.906201) scale(0.7)"/>
    </g>
   </g>
  </g>
 </g>
 <defs>
  <clipPath id="pe510018b75">
   <rect x="0" y="0" width="212.364" height="135.1"/>
  </clipPath>
 </defs>
</svg>
