<?xml version="1.0" encoding="utf-8" standalone="no"?>
<!DOCTYPE svg PUBLIC "-//W3C//DTD SVG 1.1//EN"
  "http://www.w3.org/Graphics/SVG/1.1/DTD/svg11.dtd">
<svg xmlns:xlink="http://www.w3.org/1999/xlink" width="352.764pt" height="162.2pt" viewBox="0 0 352.764 162.2" xmlns="http://www.w3.org/2000/svg" version="1.1">
 <metadata>
  <rdf:RDF xmlns:dc="http://purl.org/dc/elements/1.1/" xmlns:cc="http://creativecommons.org/ns#" xmlns:rdf="http://www.w3.org/1999/02/22-rdf-syntax-ns#">
   <cc:Work>
    <dc:type rdf:resource="http://purl.org/dc/dcmitype/StillImage"/>
    <dc:date>2026-06-24T19:16:03.559134</dc:date>
    <dc:format>image/svg+xml</dc:format>
    <dc:creator>
     <cc:Agent>
      <dc:title>Matplotlib v3.11.0, https://matplotlib.org/</dc:title>
     </cc:Agent>
    </dc:creator>
   </cc:Work>
  </rdf:RDF>
 </metadata>
 <defs>
  <style type="text/css">*{stroke-linejoin: round; stroke-linecap: butt}</style>
 </defs>
 <g id="figure_1">
  <g id="patch_1">
   <path d="M 0 162.2 
L 352.764 162.2 
L 352.764 0 
L 0 0 
L 0 162.2 
z
" style="fill: none"/>
  </g>
  <g id="axes_1">
   <g id="patch_2">
    <path d="M 22.68 118.28 
C 27.453656 118.28 32.032438 116.383406 35.407922 113.007922 
C 38.783406 109.632438 40.68 105.053656 40.68 100.28 
C 40.68 95.506344 38.783406 90.927562 35.407922 87.552078 
C 32.032438 84.176594 27.453656 82.28 22.68 82.28 
C 17.906344 82.28 13.327562 84.176594 9.952078 87.552078 
C 6.576594 90.927562 4.68 95.506344 4.68 100.28 
C 4.68 105.053656 6.576594 109.632438 9.952078 113.007922 
C 13.327562 116.383406 17.906344 118.28 22.68 118.28 
L 22.68 118.28 
z
" clip-path="url(#p7166cbd881)" style="fill: none; stroke: #000000; stroke-width: 2; stroke-linejoin: miter"/>
   </g>
   <g id="line2d_1">
    <path d="M 22.68 130.88 
L 22.68 118.28 
L 22.68 118.28 
M 22.68 82.28 
L 22.68 82.28 
L 22.68 69.68 
" clip-path="url(#p7166cbd881)" style="fill: none; stroke: #000000; stroke-width: 2; stroke-linecap: round"/>
   </g>
   <g id="line2d_2">
    <path d="M 26.28 109.28 
L 19.08 109.28 
" clip-path="url(#p7166cbd881)" style="fill: none; stroke: #000000; stroke-width: 2; stroke-linecap: round"/>
   </g>
   <g id="line2d_3">
    <path d="M 22.68 94.88 
L 22.68 87.68 
" clip-path="url(#p7166cbd881)" style="fill: none; stroke: #000000; stroke-width: 2; stroke-linecap: round"/>
   </g>
   <g id="line2d_4">
    <path d="M 26.28 91.28 
L 19.08 91.28 
" clip-path="url(#p7166cbd881)" style="fill: none; stroke: #000000; stroke-width: 2; stroke-linecap: round"/>
   </g>
   <g id="line2d_5">
    <path d="M 22.68 69.68 
L 37.08 69.68 
L 51.48 69.68 
" clip-path="url(#p7166cbd881)" style="fill: none; stroke: #000000; stroke-width: 2; stroke-linecap: round"/>
   </g>
   <g id="line2d_6">
    <path d="M 51.48 69.68 
L 64.08 69.68 
L 67.08 60.68 
L 73.08 78.68 
L 79.08 60.68 
L 85.08 78.68 
L 91.08 60.68 
L 97.08 78.68 
L 100.08 69.68 
L 112.68 69.68 
" clip-path="url(#p7166cbd881)" style="fill: none; stroke: #000000; stroke-width: 2; stroke-linecap: round"/>
   </g>
   <g id="line2d_7">
    <path d="M 112.68 69.68 
L 112.68 98.84 
M 121.68 98.84 
L 103.68 98.84 
M 121.68 105.32 
L 103.68 105.32 
M 112.68 105.32 
L 112.68 134.48 
" clip-path="url(#p7166cbd881)" style="fill: none; stroke: #000000; stroke-width: 2; stroke-linecap: round"/>
   </g>
   <g id="line2d_8">
    <path d="M 112.68 134.48 
L 112.68 148.88 
L 103.68 148.88 
L 121.68 148.88 
M 106.38 153.2 
L 118.98 153.2 
M 110.88 157.52 
L 114.48 157.52 
" clip-path="url(#p7166cbd881)" style="fill: none; stroke: #000000; stroke-width: 2; stroke-linecap: round"/>
   </g>
   <g id="line2d_9">
    <path d="M 112.68 69.68 
L 125.28 69.68 
L 128.28 60.68 
L 134.28 78.68 
L 140.28 60.68 
L 146.28 78.68 
L 152.28 60.68 
L 158.28 78.68 
L 161.28 69.68 
L 173.88 69.68 
" clip-path="url(#p7166cbd881)" style="fill: none; stroke: #000000; stroke-width: 2; stroke-linecap: round"/>
   </g>
   <g id="line2d_10">
    <path d="M 173.88 69.68 
L 173.88 98.84 
M 182.88 98.84 
L 164.88 98.84 
M 182.88 105.32 
L 164.88 105.32 
M 173.88 105.32 
L 173.88 134.48 
" clip-path="url(#p7166cbd881)" style="fill: none; stroke: #000000; stroke-width: 2; stroke-linecap: round"/>
   </g>
   <g id="line2d_11">
    <path d="M 173.88 134.48 
L 173.88 148.88 
L 164.88 148.88 
L 182.88 148.88 
M 167.58 153.2 
L 180.18 153.2 
M 172.08 157.52 
L 175.68 157.52 
" clip-path="url(#p7166cbd881)" style="fill: none; stroke: #000000; stroke-width: 2; stroke-linecap: round"/>
   </g>
   <g id="line2d_12">
    <path d="M 173.88 69.68 
L 186.48 69.68 
L 189.48 60.68 
L 195.48 78.68 
L 201.48 60.68 
L 207.48 78.68 
L 213.48 60.68 
L 219.48 78.68 
L 222.48 69.68 
L 235.08 69.68 
" clip-path="url(#p7166cbd881)" style="fill: none; stroke: #000000; stroke-width: 2; stroke-linecap: round"/>
   </g>
   <g id="line2d_13">
    <path d="M 235.08 69.68 
L 235.08 98.84 
M 244.08 98.84 
L 226.08 98.84 
M 244.08 105.32 
L 226.08 105.32 
M 235.08 105.32 
L 235.08 134.48 
" clip-path="url(#p7166cbd881)" style="fill: none; stroke: #000000; stroke-width: 2; stroke-linecap: round"/>
   </g>
   <g id="line2d_14">
    <path d="M 235.08 134.48 
L 235.08 148.88 
L 226.08 148.88 
L 244.08 148.88 
M 228.78 153.2 
L 241.38 153.2 
M 233.28 157.52 
L 236.88 157.52 
" clip-path="url(#p7166cbd881)" style="fill: none; stroke: #000000; stroke-width: 2; stroke-linecap: round"/>
   </g>
   <g id="line2d_15">
    <path d="M 235.08 69.68 
L 247.68 69.68 
L 250.68 60.68 
L 256.68 78.68 
L 262.68 60.68 
L 268.68 78.68 
L 274.68 60.68 
L 280.68 78.68 
L 283.68 69.68 
L 296.28 69.68 
" clip-path="url(#p7166cbd881)" style="fill: none; stroke: #000000; stroke-width: 2; stroke-linecap: round"/>
   </g>
   <g id="line2d_16">
    <path d="M 296.28 69.68 
L 296.28 98.84 
M 305.28 98.84 
L 287.28 98.84 
M 305.28 105.32 
L 287.28 105.32 
M 296.28 105.32 
L 296.28 134.48 
" clip-path="url(#p7166cbd881)" style="fill: none; stroke: #000000; stroke-width: 2; stroke-linecap: round"/>
   </g>
   <g id="line2d_17">
    <path d="M 296.28 134.48 
L 296.28 148.88 
L 287.28 148.88 
L 305.28 148.88 
M 289.98 153.2 
L 302.58 153.2 
M 294.48 157.52 
L 298.08 157.52 
" clip-path="url(#p7166cbd881)" style="fill: none; stroke: #000000; stroke-width: 2; stroke-linecap: round"/>
   </g>
   <g id="line2d_18">
    <path d="M 22.68 130.88 
L 22.68 132.68 
L 22.68 134.48 
" clip-path="url(#p7166cbd881)" style="fill: none; stroke: #000000; stroke-width: 2; stroke-linecap: round"/>
   </g>
   <g id="text_1">
    <!-- $T_{src}$ -->
    <g transform="translate(12.6 143.9) scale(0.12 -0.12)">
     <defs>
      <path id="DejaVuSans-Oblique-37" d="M 378 4666 
L 4325 4666 
L 4225 4134 
L 2559 4134 
L 1759 0 
L 1125 0 
L 1925 4134 
L 275 4134 
L 378 4666 
z
" transform="scale(0.015625)"/>
      <path id="DejaVuSans-Oblique-56" d="M 3200 3397 
L 3091 2853 
Q 2863 2978 2609 3040 
Q 2356 3103 2088 3103 
Q 1634 3103 1373 2948 
Q 1113 2794 1113 2528 
Q 1113 2219 1719 2053 
Q 1766 2041 1788 2034 
L 1972 1978 
Q 2547 1819 2739 1644 
Q 2931 1469 2931 1166 
Q 2931 609 2489 259 
Q 2047 -91 1331 -91 
Q 1053 -91 747 -37 
Q 441 16 72 128 
L 184 722 
Q 500 559 806 475 
Q 1113 391 1394 391 
Q 1816 391 2080 572 
Q 2344 753 2344 1031 
Q 2344 1331 1650 1516 
L 1591 1531 
L 1394 1581 
Q 956 1697 753 1886 
Q 550 2075 550 2369 
Q 550 2928 970 3256 
Q 1391 3584 2113 3584 
Q 2397 3584 2667 3537 
Q 2938 3491 3200 3397 
z
" transform="scale(0.015625)"/>
      <path id="DejaVuSans-Oblique-55" d="M 2853 2969 
Q 2766 3016 2653 3041 
Q 2541 3066 2413 3066 
Q 1953 3066 1609 2717 
Q 1266 2369 1153 1784 
L 800 0 
L 225 0 
L 909 3500 
L 1484 3500 
L 1375 2956 
Q 1603 3259 1920 3421 
Q 2238 3584 2597 3584 
Q 2691 3584 2781 3573 
Q 2872 3563 2963 3538 
L 2853 2969 
z
" transform="scale(0.015625)"/>
      <path id="DejaVuSans-Oblique-46" d="M 3431 3366 
L 3316 2797 
Q 3109 2947 2876 3022 
Q 2644 3097 2394 3097 
Q 2119 3097 1870 3000 
Q 1622 2903 1453 2725 
Q 1184 2453 1037 2087 
Q 891 1722 891 1331 
Q 891 859 1127 628 
Q 1363 397 1844 397 
Q 2081 397 2348 469 
Q 2616 541 2906 684 
L 2797 116 
Q 2547 13 2283 -39 
Q 2019 -91 1741 -91 
Q 1044 -91 669 257 
Q 294 606 294 1253 
Q 294 1797 489 2255 
Q 684 2713 1069 3078 
Q 1331 3328 1684 3456 
Q 2038 3584 2456 3584 
Q 2700 3584 2940 3529 
Q 3181 3475 3431 3366 
z
" transform="scale(0.015625)"/>
     </defs>
     <use xlink:href="#DejaVuSans-Oblique-37" transform="translate(0 0.09375)"/>
     <use xlink:href="#DejaVuSans-Oblique-56" transform="translate(61.083984 -14.906201) scale(0.7)"/>
     <use xlink:href="#DejaVuSans-Oblique-55" transform="translate(97.553711 -14.906201) scale(0.7)"/>
     <use xlink:href="#DejaVuSans-Oblique-46" transform="translate(126.333008 -14.906201) scale(0.7)"/>
    </g>
   </g>
   <g id="text_2">
    <!-- $H_{out}$ -->
    <g transform="translate(70.5 91.7) scale(0.12 -0.12)">
     <defs>
      <path id="DejaVuSans-Oblique-2b" d="M 1081 4666 
L 1716 4666 
L 1344 2753 
L 3634 2753 
L 4006 4666 
L 4641 4666 
L 3731 0 
L 3097 0 
L 3531 2222 
L 1241 2222 
L 806 0 
L 172 0 
L 1081 4666 
z
" transform="scale(0.015625)"/>
      <path id="DejaVuSans-Oblique-52" d="M 1625 -91 
Q 1009 -91 651 289 
Q 294 669 294 1325 
Q 294 1706 417 2101 
Q 541 2497 738 2766 
Q 1047 3184 1428 3384 
Q 1809 3584 2291 3584 
Q 2888 3584 3255 3212 
Q 3622 2841 3622 2241 
Q 3622 1825 3500 1412 
Q 3378 1000 3181 728 
Q 2875 309 2494 109 
Q 2113 -91 1625 -91 
z
M 891 1344 
Q 891 869 1089 633 
Q 1288 397 1691 397 
Q 2269 397 2648 901 
Q 3028 1406 3028 2181 
Q 3028 2634 2825 2865 
Q 2622 3097 2228 3097 
Q 1903 3097 1650 2945 
Q 1397 2794 1197 2484 
Q 1050 2253 970 1956 
Q 891 1659 891 1344 
z
" transform="scale(0.015625)"/>
      <path id="DejaVuSans-Oblique-58" d="M 428 1388 
L 838 3500 
L 1416 3500 
L 1006 1409 
Q 975 1256 961 1147 
Q 947 1038 947 966 
Q 947 700 1109 554 
Q 1272 409 1569 409 
Q 2031 409 2368 721 
Q 2706 1034 2809 1563 
L 3194 3500 
L 3769 3500 
L 3091 0 
L 2516 0 
L 2631 550 
Q 2388 244 2052 76 
Q 1716 -91 1338 -91 
Q 878 -91 622 161 
Q 366 413 366 863 
Q 366 956 381 1097 
Q 397 1238 428 1388 
z
" transform="scale(0.015625)"/>
      <path id="DejaVuSans-Oblique-57" d="M 2706 3500 
L 2619 3053 
L 1472 3053 
L 1100 1153 
Q 1081 1047 1072 975 
Q 1063 903 1063 863 
Q 1063 663 1183 572 
Q 1303 481 1569 481 
L 2150 481 
L 2053 0 
L 1503 0 
Q 991 0 739 200 
Q 488 400 488 806 
Q 488 878 497 964 
Q 506 1050 525 1153 
L 897 3053 
L 409 3053 
L 500 3500 
L 978 3500 
L 1172 4494 
L 1747 4494 
L 1556 3500 
L 2706 3500 
z
" transform="scale(0.015625)"/>
     </defs>
     <use xlink:href="#DejaVuSans-Oblique-2b" transform="translate(0 0.09375)"/>
     <use xlink:href="#DejaVuSans-Oblique-52" transform="translate(75.195312 -14.906201) scale(0.7)"/>
     <use xlink:href="#DejaVuSans-Oblique-58" transform="translate(118.022461 -14.906201) scale(0.7)"/>
     <use xlink:href="#DejaVuSans-Oblique-57" transform="translate(162.387695 -14.906201) scale(0.7)"/>
    </g>
   </g>
   <g id="text_3">
    <!-- $C_1$ -->
    <g transform="translate(138 67.28) scale(0.12 -0.12)">
     <defs>
      <path id="DejaVuSans-Oblique-26" d="M 4447 4306 
L 4319 3641 
Q 4019 3944 3683 4091 
Q 3347 4238 2956 4238 
Q 2422 4238 2017 3981 
Q 1613 3725 1319 3200 
Q 1131 2863 1032 2486 
Q 934 2109 934 1728 
Q 934 1091 1264 756 
Q 1594 422 2222 422 
Q 2656 422 3056 561 
Q 3456 700 3834 978 
L 3688 231 
Q 3316 72 2936 -9 
Q 2556 -91 2175 -91 
Q 1278 -91 773 396 
Q 269 884 269 1753 
Q 269 2309 461 2846 
Q 653 3384 1013 3828 
Q 1394 4300 1883 4525 
Q 2372 4750 3022 4750 
Q 3422 4750 3780 4639 
Q 4138 4528 4447 4306 
z
" transform="scale(0.015625)"/>
      <path id="DejaVuSans-14" d="M 794 531 
L 1825 531 
L 1825 4091 
L 703 3866 
L 703 4441 
L 1819 4666 
L 2450 4666 
L 2450 531 
L 3481 531 
L 3481 0 
L 794 0 
L 794 531 
z
" transform="scale(0.015625)"/>
     </defs>
     <use xlink:href="#DejaVuSans-Oblique-26" transform="translate(0 0.78125)"/>
     <use xlink:href="#DejaVuSans-14" transform="translate(69.824219 -14.218701) scale(0.7)"/>
    </g>
   </g>
   <g id="text_4">
    <!-- $H_1$ -->
    <g transform="translate(135.9 91.76) scale(0.12 -0.12)">
     <use xlink:href="#DejaVuSans-Oblique-2b" transform="translate(0 0.09375)"/>
     <use xlink:href="#DejaVuSans-14" transform="translate(75.195312 -14.906201) scale(0.7)"/>
    </g>
   </g>
   <g id="text_5">
    <!-- $C_2$ -->
    <g transform="translate(199.2 67.28) scale(0.12 -0.12)">
     <defs>
      <path id="DejaVuSans-15" d="M 1228 531 
L 3431 531 
L 3431 0 
L 469 0 
L 469 531 
Q 828 903 1448 1529 
Q 2069 2156 2228 2338 
Q 2531 2678 2651 2914 
Q 2772 3150 2772 3378 
Q 2772 3750 2511 3984 
Q 2250 4219 1831 4219 
Q 1534 4219 1204 4116 
Q 875 4013 500 3803 
L 500 4441 
Q 881 4594 1212 4672 
Q 1544 4750 1819 4750 
Q 2544 4750 2975 4387 
Q 3406 4025 3406 3419 
Q 3406 3131 3298 2873 
Q 3191 2616 2906 2266 
Q 2828 2175 2409 1742 
Q 1991 1309 1228 531 
z
" transform="scale(0.015625)"/>
     </defs>
     <use xlink:href="#DejaVuSans-Oblique-26" transform="translate(0 0.78125)"/>
     <use xlink:href="#DejaVuSans-15" transform="translate(69.824219 -14.218701) scale(0.7)"/>
    </g>
   </g>
   <g id="text_6">
    <!-- $H_2$ -->
    <g transform="translate(197.1 91.76) scale(0.12 -0.12)">
     <use xlink:href="#DejaVuSans-Oblique-2b" transform="translate(0 0.09375)"/>
     <use xlink:href="#DejaVuSans-15" transform="translate(75.195312 -14.906201) scale(0.7)"/>
    </g>
   </g>
   <g id="text_7">
    <!-- $C_3$ -->
    <g transform="translate(260.4 67.22) scale(0.12 -0.12)">
     <defs>
      <path id="DejaVuSans-16" d="M 2597 2516 
Q 3050 2419 3304 2112 
Q 3559 1806 3559 1356 
Q 3559 666 3084 287 
Q 2609 -91 1734 -91 
Q 1441 -91 1130 -33 
Q 819 25 488 141 
L 488 750 
Q 750 597 1062 519 
Q 1375 441 1716 441 
Q 2309 441 2620 675 
Q 2931 909 2931 1356 
Q 2931 1769 2642 2001 
Q 2353 2234 1838 2234 
L 1294 2234 
L 1294 2753 
L 1863 2753 
Q 2328 2753 2575 2939 
Q 2822 3125 2822 3475 
Q 2822 3834 2567 4026 
Q 2313 4219 1838 4219 
Q 1578 4219 1281 4162 
Q 984 4106 628 3988 
L 628 4550 
Q 988 4650 1302 4700 
Q 1616 4750 1894 4750 
Q 2613 4750 3031 4423 
Q 3450 4097 3450 3541 
Q 3450 3153 3228 2886 
Q 3006 2619 2597 2516 
z
" transform="scale(0.015625)"/>
     </defs>
     <use xlink:href="#DejaVuSans-Oblique-26" transform="translate(0 0.78125)"/>
     <use xlink:href="#DejaVuSans-16" transform="translate(69.824219 -14.218701) scale(0.7)"/>
    </g>
   </g>
   <g id="text_8">
    <!-- $H_{in}$ -->
    <g transform="translate(257.16 91.76) scale(0.12 -0.12)">
     <defs>
      <path id="DejaVuSans-Oblique-4c" d="M 1172 4863 
L 1747 4863 
L 1606 4134 
L 1031 4134 
L 1172 4863 
z
M 909 3500 
L 1484 3500 
L 800 0 
L 225 0 
L 909 3500 
z
" transform="scale(0.015625)"/>
      <path id="DejaVuSans-Oblique-51" d="M 3566 2113 
L 3156 0 
L 2578 0 
L 2988 2091 
Q 3016 2238 3031 2350 
Q 3047 2463 3047 2528 
Q 3047 2791 2881 2937 
Q 2716 3084 2419 3084 
Q 1956 3084 1622 2776 
Q 1288 2469 1184 1941 
L 800 0 
L 225 0 
L 903 3500 
L 1478 3500 
L 1363 2950 
Q 1603 3253 1940 3418 
Q 2278 3584 2650 3584 
Q 3113 3584 3367 3334 
Q 3622 3084 3622 2631 
Q 3622 2519 3608 2391 
Q 3594 2263 3566 2113 
z
" transform="scale(0.015625)"/>
     </defs>
     <use xlink:href="#DejaVuSans-Oblique-2b" transform="translate(0 0.09375)"/>
     <use xlink:href="#DejaVuSans-Oblique-4c" transform="translate(75.195312 -14.906201) scale(0.7)"/>
     <use xlink:href="#DejaVuSans-Oblique-51" transform="translate(94.643555 -14.906201) scale(0.7)"/>
    </g>
   </g>
   <g id="text_9">
    <!-- $C_{room}$ -->
    <g transform="translate(313.32 67.22) scale(0.12 -0.12)">
     <defs>
      <path id="DejaVuSans-Oblique-50" d="M 5747 2113 
L 5338 0 
L 4763 0 
L 5166 2094 
Q 5191 2228 5203 2325 
Q 5216 2422 5216 2491 
Q 5216 2772 5059 2928 
Q 4903 3084 4622 3084 
Q 4203 3084 3875 2770 
Q 3547 2456 3450 1953 
L 3066 0 
L 2491 0 
L 2900 2094 
Q 2925 2209 2937 2307 
Q 2950 2406 2950 2484 
Q 2950 2769 2794 2926 
Q 2638 3084 2363 3084 
Q 1938 3084 1609 2770 
Q 1281 2456 1184 1953 
L 800 0 
L 225 0 
L 909 3500 
L 1484 3500 
L 1375 2956 
Q 1609 3263 1923 3423 
Q 2238 3584 2597 3584 
Q 2978 3584 3223 3384 
Q 3469 3184 3519 2828 
Q 3781 3197 4126 3390 
Q 4472 3584 4856 3584 
Q 5306 3584 5551 3325 
Q 5797 3066 5797 2591 
Q 5797 2488 5784 2364 
Q 5772 2241 5747 2113 
z
" transform="scale(0.015625)"/>
     </defs>
     <use xlink:href="#DejaVuSans-Oblique-26" transform="translate(0 0.78125)"/>
     <use xlink:href="#DejaVuSans-Oblique-55" transform="translate(69.824219 -14.218701) scale(0.7)"/>
     <use xlink:href="#DejaVuSans-Oblique-52" transform="translate(98.603516 -14.218701) scale(0.7)"/>
     <use xlink:href="#DejaVuSans-Oblique-52" transform="translate(141.430664 -14.218701) scale(0.7)"/>
     <use xlink:href="#DejaVuSans-Oblique-50" transform="translate(184.257812 -14.218701) scale(0.7)"/>
    </g>
   </g>
   <g id="text_10">
    <!-- N-cell wall: $R_i = R_{tot}/N$,  $C_i = C_{tot}/N$ -->
    <g style="fill: #000080" transform="translate(96.925 13.48) scale(0.11 -0.11)">
     <defs>
      <path id="DejaVuSans-31" d="M 628 4666 
L 1478 4666 
L 3547 763 
L 3547 4666 
L 4159 4666 
L 4159 0 
L 3309 0 
L 1241 3903 
L 1241 0 
L 628 0 
L 628 4666 
z
" transform="scale(0.015625)"/>
      <path id="DejaVuSans-10" d="M 313 2009 
L 1997 2009 
L 1997 1497 
L 313 1497 
L 313 2009 
z
" transform="scale(0.015625)"/>
      <path id="DejaVuSans-46" d="M 3122 3366 
L 3122 2828 
Q 2878 2963 2633 3030 
Q 2388 3097 2138 3097 
Q 1578 3097 1268 2742 
Q 959 2388 959 1747 
Q 959 1106 1268 751 
Q 1578 397 2138 397 
Q 2388 397 2633 464 
Q 2878 531 3122 666 
L 3122 134 
Q 2881 22 2623 -34 
Q 2366 -91 2075 -91 
Q 1284 -91 818 406 
Q 353 903 353 1747 
Q 353 2603 823 3093 
Q 1294 3584 2113 3584 
Q 2378 3584 2631 3529 
Q 2884 3475 3122 3366 
z
" transform="scale(0.015625)"/>
      <path id="DejaVuSans-48" d="M 3597 1894 
L 3597 1613 
L 953 1613 
Q 991 1019 1311 708 
Q 1631 397 2203 397 
Q 2534 397 2845 478 
Q 3156 559 3463 722 
L 3463 178 
Q 3153 47 2828 -22 
Q 2503 -91 2169 -91 
Q 1331 -91 842 396 
Q 353 884 353 1716 
Q 353 2575 817 3079 
Q 1281 3584 2069 3584 
Q 2775 3584 3186 3129 
Q 3597 2675 3597 1894 
z
M 3022 2063 
Q 3016 2534 2758 2815 
Q 2500 3097 2075 3097 
Q 1594 3097 1305 2825 
Q 1016 2553 972 2059 
L 3022 2063 
z
" transform="scale(0.015625)"/>
      <path id="DejaVuSans-4f" d="M 603 4863 
L 1178 4863 
L 1178 0 
L 603 0 
L 603 4863 
z
" transform="scale(0.015625)"/>
      <path id="DejaVuSans-3" transform="scale(0.015625)"/>
      <path id="DejaVuSans-5a" d="M 269 3500 
L 844 3500 
L 1563 769 
L 2278 3500 
L 2956 3500 
L 3675 769 
L 4391 3500 
L 4966 3500 
L 4050 0 
L 3372 0 
L 2619 2869 
L 1863 0 
L 1184 0 
L 269 3500 
z
" transform="scale(0.015625)"/>
      <path id="DejaVuSans-44" d="M 2194 1759 
Q 1497 1759 1228 1600 
Q 959 1441 959 1056 
Q 959 750 1161 570 
Q 1363 391 1709 391 
Q 2188 391 2477 730 
Q 2766 1069 2766 1631 
L 2766 1759 
L 2194 1759 
z
M 3341 1997 
L 3341 0 
L 2766 0 
L 2766 531 
Q 2569 213 2275 61 
Q 1981 -91 1556 -91 
Q 1019 -91 701 211 
Q 384 513 384 1019 
Q 384 1609 779 1909 
Q 1175 2209 1959 2209 
L 2766 2209 
L 2766 2266 
Q 2766 2663 2505 2880 
Q 2244 3097 1772 3097 
Q 1472 3097 1187 3025 
Q 903 2953 641 2809 
L 641 3341 
Q 956 3463 1253 3523 
Q 1550 3584 1831 3584 
Q 2591 3584 2966 3190 
Q 3341 2797 3341 1997 
z
" transform="scale(0.015625)"/>
      <path id="DejaVuSans-1d" d="M 750 794 
L 1409 794 
L 1409 0 
L 750 0 
L 750 794 
z
M 750 3309 
L 1409 3309 
L 1409 2516 
L 750 2516 
L 750 3309 
z
" transform="scale(0.015625)"/>
      <path id="DejaVuSans-Oblique-35" d="M 1613 4147 
L 1294 2491 
L 2106 2491 
Q 2584 2491 2879 2755 
Q 3175 3019 3175 3444 
Q 3175 3784 2976 3965 
Q 2778 4147 2406 4147 
L 1613 4147 
z
M 2772 2241 
Q 2972 2194 3105 2009 
Q 3238 1825 3413 1275 
L 3809 0 
L 3144 0 
L 2778 1197 
Q 2638 1659 2453 1815 
Q 2269 1972 1888 1972 
L 1191 1972 
L 806 0 
L 172 0 
L 1081 4666 
L 2503 4666 
Q 3150 4666 3495 4373 
Q 3841 4081 3841 3531 
Q 3841 3044 3547 2687 
Q 3253 2331 2772 2241 
z
" transform="scale(0.015625)"/>
      <path id="DejaVuSans-20" d="M 678 2906 
L 4684 2906 
L 4684 2381 
L 678 2381 
L 678 2906 
z
M 678 1631 
L 4684 1631 
L 4684 1100 
L 678 1100 
L 678 1631 
z
" transform="scale(0.015625)"/>
      <path id="DejaVuSans-12" d="M 1625 4666 
L 2156 4666 
L 531 -594 
L 0 -594 
L 1625 4666 
z
" transform="scale(0.015625)"/>
      <path id="DejaVuSans-Oblique-31" d="M 1081 4666 
L 1931 4666 
L 3219 666 
L 4000 4666 
L 4616 4666 
L 3706 0 
L 2853 0 
L 1569 4025 
L 788 0 
L 172 0 
L 1081 4666 
z
" transform="scale(0.015625)"/>
      <path id="DejaVuSans-f" d="M 750 794 
L 1409 794 
L 1409 256 
L 897 -744 
L 494 -744 
L 750 256 
L 750 794 
z
" transform="scale(0.015625)"/>
     </defs>
     <use xlink:href="#DejaVuSans-31" transform="translate(0 0.015625)"/>
     <use xlink:href="#DejaVuSans-10" transform="translate(74.804688 0.015625)"/>
     <use xlink:href="#DejaVuSans-46" transform="translate(110.888672 0.015625)"/>
     <use xlink:href="#DejaVuSans-48" transform="translate(165.869141 0.015625)"/>
     <use xlink:href="#DejaVuSans-4f" transform="translate(227.392578 0.015625)"/>
     <use xlink:href="#DejaVuSans-4f" transform="translate(255.175781 0.015625)"/>
     <use xlink:href="#DejaVuSans-3" transform="translate(282.958984 0.015625)"/>
     <use xlink:href="#DejaVuSans-5a" transform="translate(314.746094 0.015625)"/>
     <use xlink:href="#DejaVuSans-44" transform="translate(396.533203 0.015625)"/>
     <use xlink:href="#DejaVuSans-4f" transform="translate(457.8125 0.015625)"/>
     <use xlink:href="#DejaVuSans-4f" transform="translate(485.595703 0.015625)"/>
     <use xlink:href="#DejaVuSans-1d" transform="translate(513.378906 0.015625)"/>
     <use xlink:href="#DejaVuSans-3" transform="translate(547.070312 0.015625)"/>
     <use xlink:href="#DejaVuSans-Oblique-35" transform="translate(578.857422 0.015625)"/>
     <use xlink:href="#DejaVuSans-Oblique-4c" transform="translate(648.339844 -14.984326) scale(0.7)"/>
     <use xlink:href="#DejaVuSans-20" transform="translate(690.004883 0.015625)"/>
     <use xlink:href="#DejaVuSans-Oblique-35" transform="translate(793.276367 0.015625)"/>
     <use xlink:href="#DejaVuSans-Oblique-57" transform="translate(862.758789 -14.984326) scale(0.7)"/>
     <use xlink:href="#DejaVuSans-Oblique-52" transform="translate(890.205078 -14.984326) scale(0.7)"/>
     <use xlink:href="#DejaVuSans-Oblique-57" transform="translate(933.032227 -14.984326) scale(0.7)"/>
     <use xlink:href="#DejaVuSans-12" transform="translate(963.212891 0.015625)"/>
     <use xlink:href="#DejaVuSans-Oblique-31" transform="translate(996.904297 0.015625)"/>
     <use xlink:href="#DejaVuSans-f" transform="translate(1071.708984 0.015625)"/>
     <use xlink:href="#DejaVuSans-3" transform="translate(1103.496094 0.015625)"/>
     <use xlink:href="#DejaVuSans-3" transform="translate(1135.283203 0.015625)"/>
     <use xlink:href="#DejaVuSans-Oblique-26" transform="translate(1167.070312 0.015625)"/>
     <use xlink:href="#DejaVuSans-Oblique-4c" transform="translate(1236.894531 -14.984326) scale(0.7)"/>
     <use xlink:href="#DejaVuSans-20" transform="translate(1278.55957 0.015625)"/>
     <use xlink:href="#DejaVuSans-Oblique-26" transform="translate(1381.831055 0.015625)"/>
     <use xlink:href="#DejaVuSans-Oblique-57" transform="translate(1451.655273 -14.984326) scale(0.7)"/>
     <use xlink:href="#DejaVuSans-Oblique-52" transform="translate(1479.101562 -14.984326) scale(0.7)"/>
     <use xlink:href="#DejaVuSans-Oblique-57" transform="translate(1521.928711 -14.984326) scale(0.7)"/>
     <use xlink:href="#DejaVuSans-12" transform="translate(1552.109375 0.015625)"/>
     <use xlink:href="#DejaVuSans-Oblique-31" transform="translate(1585.800781 0.015625)"/>
    </g>
    <!-- (sliced in layer order — captures ITE vs ITI) -->
    <g style="fill: #000080" transform="translate(70.104766 24.215312) scale(0.11 -0.11)">
     <defs>
      <path id="DejaVuSans-b" d="M 1984 4856 
Q 1566 4138 1362 3434 
Q 1159 2731 1159 2009 
Q 1159 1288 1364 580 
Q 1569 -128 1984 -844 
L 1484 -844 
Q 1016 -109 783 600 
Q 550 1309 550 2009 
Q 550 2706 781 3412 
Q 1013 4119 1484 4856 
L 1984 4856 
z
" transform="scale(0.015625)"/>
      <path id="DejaVuSans-56" d="M 2834 3397 
L 2834 2853 
Q 2591 2978 2328 3040 
Q 2066 3103 1784 3103 
Q 1356 3103 1142 2972 
Q 928 2841 928 2578 
Q 928 2378 1081 2264 
Q 1234 2150 1697 2047 
L 1894 2003 
Q 2506 1872 2764 1633 
Q 3022 1394 3022 966 
Q 3022 478 2636 193 
Q 2250 -91 1575 -91 
Q 1294 -91 989 -36 
Q 684 19 347 128 
L 347 722 
Q 666 556 975 473 
Q 1284 391 1588 391 
Q 1994 391 2212 530 
Q 2431 669 2431 922 
Q 2431 1156 2273 1281 
Q 2116 1406 1581 1522 
L 1381 1569 
Q 847 1681 609 1914 
Q 372 2147 372 2553 
Q 372 3047 722 3315 
Q 1072 3584 1716 3584 
Q 2034 3584 2315 3537 
Q 2597 3491 2834 3397 
z
" transform="scale(0.015625)"/>
      <path id="DejaVuSans-4c" d="M 603 3500 
L 1178 3500 
L 1178 0 
L 603 0 
L 603 3500 
z
M 603 4863 
L 1178 4863 
L 1178 4134 
L 603 4134 
L 603 4863 
z
" transform="scale(0.015625)"/>
      <path id="DejaVuSans-47" d="M 2906 2969 
L 2906 4863 
L 3481 4863 
L 3481 0 
L 2906 0 
L 2906 525 
Q 2725 213 2448 61 
Q 2172 -91 1784 -91 
Q 1150 -91 751 415 
Q 353 922 353 1747 
Q 353 2572 751 3078 
Q 1150 3584 1784 3584 
Q 2172 3584 2448 3432 
Q 2725 3281 2906 2969 
z
M 947 1747 
Q 947 1113 1208 752 
Q 1469 391 1925 391 
Q 2381 391 2643 752 
Q 2906 1113 2906 1747 
Q 2906 2381 2643 2742 
Q 2381 3103 1925 3103 
Q 1469 3103 1208 2742 
Q 947 2381 947 1747 
z
" transform="scale(0.015625)"/>
      <path id="DejaVuSans-51" d="M 3513 2113 
L 3513 0 
L 2938 0 
L 2938 2094 
Q 2938 2591 2744 2837 
Q 2550 3084 2163 3084 
Q 1697 3084 1428 2787 
Q 1159 2491 1159 1978 
L 1159 0 
L 581 0 
L 581 3500 
L 1159 3500 
L 1159 2956 
Q 1366 3272 1645 3428 
Q 1925 3584 2291 3584 
Q 2894 3584 3203 3211 
Q 3513 2838 3513 2113 
z
" transform="scale(0.015625)"/>
      <path id="DejaVuSans-5c" d="M 2059 -325 
Q 1816 -950 1584 -1140 
Q 1353 -1331 966 -1331 
L 506 -1331 
L 506 -850 
L 844 -850 
Q 1081 -850 1212 -737 
Q 1344 -625 1503 -206 
L 1606 56 
L 191 3500 
L 800 3500 
L 1894 763 
L 2988 3500 
L 3597 3500 
L 2059 -325 
z
" transform="scale(0.015625)"/>
      <path id="DejaVuSans-55" d="M 2631 2963 
Q 2534 3019 2420 3045 
Q 2306 3072 2169 3072 
Q 1681 3072 1420 2755 
Q 1159 2438 1159 1844 
L 1159 0 
L 581 0 
L 581 3500 
L 1159 3500 
L 1159 2956 
Q 1341 3275 1631 3429 
Q 1922 3584 2338 3584 
Q 2397 3584 2469 3576 
Q 2541 3569 2628 3553 
L 2631 2963 
z
" transform="scale(0.015625)"/>
      <path id="DejaVuSans-52" d="M 1959 3097 
Q 1497 3097 1228 2736 
Q 959 2375 959 1747 
Q 959 1119 1226 758 
Q 1494 397 1959 397 
Q 2419 397 2687 759 
Q 2956 1122 2956 1747 
Q 2956 2369 2687 2733 
Q 2419 3097 1959 3097 
z
M 1959 3584 
Q 2709 3584 3137 3096 
Q 3566 2609 3566 1747 
Q 3566 888 3137 398 
Q 2709 -91 1959 -91 
Q 1206 -91 779 398 
Q 353 888 353 1747 
Q 353 2609 779 3096 
Q 1206 3584 1959 3584 
z
" transform="scale(0.015625)"/>
      <path id="DejaVuSans-af6" d="M 313 1978 
L 6088 1978 
L 6088 1528 
L 313 1528 
L 313 1978 
z
" transform="scale(0.015625)"/>
      <path id="DejaVuSans-53" d="M 1159 525 
L 1159 -1331 
L 581 -1331 
L 581 3500 
L 1159 3500 
L 1159 2969 
Q 1341 3281 1617 3432 
Q 1894 3584 2278 3584 
Q 2916 3584 3314 3078 
Q 3713 2572 3713 1747 
Q 3713 922 3314 415 
Q 2916 -91 2278 -91 
Q 1894 -91 1617 61 
Q 1341 213 1159 525 
z
M 3116 1747 
Q 3116 2381 2855 2742 
Q 2594 3103 2138 3103 
Q 1681 3103 1420 2742 
Q 1159 2381 1159 1747 
Q 1159 1113 1420 752 
Q 1681 391 2138 391 
Q 2594 391 2855 752 
Q 3116 1113 3116 1747 
z
" transform="scale(0.015625)"/>
      <path id="DejaVuSans-57" d="M 1172 4494 
L 1172 3500 
L 2356 3500 
L 2356 3053 
L 1172 3053 
L 1172 1153 
Q 1172 725 1289 603 
Q 1406 481 1766 481 
L 2356 481 
L 2356 0 
L 1766 0 
Q 1100 0 847 248 
Q 594 497 594 1153 
L 594 3053 
L 172 3053 
L 172 3500 
L 594 3500 
L 594 4494 
L 1172 4494 
z
" transform="scale(0.015625)"/>
      <path id="DejaVuSans-58" d="M 544 1381 
L 544 3500 
L 1119 3500 
L 1119 1403 
Q 1119 906 1312 657 
Q 1506 409 1894 409 
Q 2359 409 2629 706 
Q 2900 1003 2900 1516 
L 2900 3500 
L 3475 3500 
L 3475 0 
L 2900 0 
L 2900 538 
Q 2691 219 2414 64 
Q 2138 -91 1772 -91 
Q 1169 -91 856 284 
Q 544 659 544 1381 
z
M 1991 3584 
L 1991 3584 
z
" transform="scale(0.015625)"/>
      <path id="DejaVuSans-2c" d="M 628 4666 
L 1259 4666 
L 1259 0 
L 628 0 
L 628 4666 
z
" transform="scale(0.015625)"/>
      <path id="DejaVuSans-37" d="M -19 4666 
L 3928 4666 
L 3928 4134 
L 2272 4134 
L 2272 0 
L 1638 0 
L 1638 4134 
L -19 4134 
L -19 4666 
z
" transform="scale(0.015625)"/>
      <path id="DejaVuSans-28" d="M 628 4666 
L 3578 4666 
L 3578 4134 
L 1259 4134 
L 1259 2753 
L 3481 2753 
L 3481 2222 
L 1259 2222 
L 1259 531 
L 3634 531 
L 3634 0 
L 628 0 
L 628 4666 
z
" transform="scale(0.015625)"/>
      <path id="DejaVuSans-59" d="M 191 3500 
L 800 3500 
L 1894 563 
L 2988 3500 
L 3597 3500 
L 2284 0 
L 1503 0 
L 191 3500 
z
" transform="scale(0.015625)"/>
      <path id="DejaVuSans-c" d="M 513 4856 
L 1013 4856 
Q 1481 4119 1714 3412 
Q 1947 2706 1947 2009 
Q 1947 1309 1714 600 
Q 1481 -109 1013 -844 
L 513 -844 
Q 928 -128 1133 580 
Q 1338 1288 1338 2009 
Q 1338 2731 1133 3434 
Q 928 4138 513 4856 
z
" transform="scale(0.015625)"/>
     </defs>
     <use xlink:href="#DejaVuSans-b"/>
     <use xlink:href="#DejaVuSans-56" transform="translate(39.015625 0)"/>
     <use xlink:href="#DejaVuSans-4f" transform="translate(91.109375 0)"/>
     <use xlink:href="#DejaVuSans-4c" transform="translate(118.890625 0)"/>
     <use xlink:href="#DejaVuSans-46" transform="translate(146.671875 0)"/>
     <use xlink:href="#DejaVuSans-48" transform="translate(201.65625 0)"/>
     <use xlink:href="#DejaVuSans-47" transform="translate(263.1875 0)"/>
     <use xlink:href="#DejaVuSans-3" transform="translate(326.671875 0)"/>
     <use xlink:href="#DejaVuSans-4c" transform="translate(358.453125 0)"/>
     <use xlink:href="#DejaVuSans-51" transform="translate(386.234375 0)"/>
     <use xlink:href="#DejaVuSans-3" transform="translate(449.609375 0)"/>
     <use xlink:href="#DejaVuSans-4f" transform="translate(481.390625 0)"/>
     <use xlink:href="#DejaVuSans-44" transform="translate(509.171875 0)"/>
     <use xlink:href="#DejaVuSans-5c" transform="translate(570.453125 0)"/>
     <use xlink:href="#DejaVuSans-48" transform="translate(629.640625 0)"/>
     <use xlink:href="#DejaVuSans-55" transform="translate(691.171875 0)"/>
     <use xlink:href="#DejaVuSans-3" transform="translate(732.28125 0)"/>
     <use xlink:href="#DejaVuSans-52" transform="translate(764.0625 0)"/>
     <use xlink:href="#DejaVuSans-55" transform="translate(825.25 0)"/>
     <use xlink:href="#DejaVuSans-47" transform="translate(864.609375 0)"/>
     <use xlink:href="#DejaVuSans-48" transform="translate(928.09375 0)"/>
     <use xlink:href="#DejaVuSans-55" transform="translate(989.625 0)"/>
     <use xlink:href="#DejaVuSans-3" transform="translate(1030.734375 0)"/>
     <use xlink:href="#DejaVuSans-af6" transform="translate(1062.515625 0)"/>
     <use xlink:href="#DejaVuSans-3" transform="translate(1162.515625 0)"/>
     <use xlink:href="#DejaVuSans-46" transform="translate(1194.296875 0)"/>
     <use xlink:href="#DejaVuSans-44" transform="translate(1249.28125 0)"/>
     <use xlink:href="#DejaVuSans-53" transform="translate(1310.5625 0)"/>
     <use xlink:href="#DejaVuSans-57" transform="translate(1374.046875 0)"/>
     <use xlink:href="#DejaVuSans-58" transform="translate(1413.25 0)"/>
     <use xlink:href="#DejaVuSans-55" transform="translate(1476.625 0)"/>
     <use xlink:href="#DejaVuSans-48" transform="translate(1515.53125 0)"/>
     <use xlink:href="#DejaVuSans-56" transform="translate(1577.0625 0)"/>
     <use xlink:href="#DejaVuSans-3" transform="translate(1629.15625 0)"/>
     <use xlink:href="#DejaVuSans-2c" transform="translate(1660.9375 0)"/>
     <use xlink:href="#DejaVuSans-37" transform="translate(1690.4375 0)"/>
     <use xlink:href="#DejaVuSans-28" transform="translate(1751.515625 0)"/>
     <use xlink:href="#DejaVuSans-3" transform="translate(1814.703125 0)"/>
     <use xlink:href="#DejaVuSans-59" transform="translate(1846.484375 0)"/>
     <use xlink:href="#DejaVuSans-56" transform="translate(1905.671875 0)"/>
     <use xlink:href="#DejaVuSans-3" transform="translate(1957.765625 0)"/>
     <use xlink:href="#DejaVuSans-2c" transform="translate(1989.546875 0)"/>
     <use xlink:href="#DejaVuSans-37" transform="translate(2019.046875 0)"/>
     <use xlink:href="#DejaVuSans-2c" transform="translate(2080.125 0)"/>
     <use xlink:href="#DejaVuSans-c" transform="translate(2109.625 0)"/>
    </g>
   </g>
   <g id="patch_3">
    <path d="M 112.68 72.38 
C 113.396048 72.38 114.082866 72.095511 114.589188 71.589188 
C 115.095511 71.082866 115.38 70.396048 115.38 69.68 
C 115.38 68.963952 115.095511 68.277134 114.589188 67.770812 
C 114.082866 67.264489 113.396048 66.98 112.68 66.98 
C 111.963952 66.98 111.277134 67.264489 110.770812 67.770812 
C 110.264489 68.277134 109.98 68.963952 109.98 69.68 
C 109.98 70.396048 110.264489 71.082866 110.770812 71.589188 
C 111.277134 72.095511 111.963952 72.38 112.68 72.38 
z
" clip-path="url(#p7166cbd881)" style="stroke: #000000; stroke-width: 2; stroke-linejoin: miter"/>
   </g>
   <g id="text_11">
    <!-- $T_{m1}$ -->
    <g transform="translate(102.06 53.66) scale(0.12 -0.12)">
     <use xlink:href="#DejaVuSans-Oblique-37" transform="translate(0 0.09375)"/>
     <use xlink:href="#DejaVuSans-Oblique-50" transform="translate(61.083984 -14.906201) scale(0.7)"/>
     <use xlink:href="#DejaVuSans-14" transform="translate(129.272461 -14.906201) scale(0.7)"/>
    </g>
   </g>
   <g id="patch_4">
    <path d="M 173.88 72.38 
C 174.596048 72.38 175.282866 72.095511 175.789188 71.589188 
C 176.295511 71.082866 176.58 70.396048 176.58 69.68 
C 176.58 68.963952 176.295511 68.277134 175.789188 67.770812 
C 175.282866 67.264489 174.596048 66.98 173.88 66.98 
C 173.163952 66.98 172.477134 67.264489 171.970812 67.770812 
C 171.464489 68.277134 171.18 68.963952 171.18 69.68 
C 171.18 70.396048 171.464489 71.082866 171.970812 71.589188 
C 172.477134 72.095511 173.163952 72.38 173.88 72.38 
z
" clip-path="url(#p7166cbd881)" style="stroke: #000000; stroke-width: 2; stroke-linejoin: miter"/>
   </g>
   <g id="text_12">
    <!-- $T_{m2}$ -->
    <g transform="translate(163.26 53.66) scale(0.12 -0.12)">
     <use xlink:href="#DejaVuSans-Oblique-37" transform="translate(0 0.09375)"/>
     <use xlink:href="#DejaVuSans-Oblique-50" transform="translate(61.083984 -14.906201) scale(0.7)"/>
     <use xlink:href="#DejaVuSans-15" transform="translate(129.272461 -14.906201) scale(0.7)"/>
    </g>
   </g>
   <g id="patch_5">
    <path d="M 235.08 72.38 
C 235.796048 72.38 236.482866 72.095511 236.989188 71.589188 
C 237.495511 71.082866 237.78 70.396048 237.78 69.68 
C 237.78 68.963952 237.495511 68.277134 236.989188 67.770812 
C 236.482866 67.264489 235.796048 66.98 235.08 66.98 
C 234.363952 66.98 233.677134 67.264489 233.170812 67.770812 
C 232.664489 68.277134 232.38 68.963952 232.38 69.68 
C 232.38 70.396048 232.664489 71.082866 233.170812 71.589188 
C 233.677134 72.095511 234.363952 72.38 235.08 72.38 
z
" clip-path="url(#p7166cbd881)" style="stroke: #000000; stroke-width: 2; stroke-linejoin: miter"/>
   </g>
   <g id="text_13">
    <!-- $T_{m3}$ -->
    <g transform="translate(224.46 53.6) scale(0.12 -0.12)">
     <use xlink:href="#DejaVuSans-Oblique-37" transform="translate(0 0.09375)"/>
     <use xlink:href="#DejaVuSans-Oblique-50" transform="translate(61.083984 -14.906201) scale(0.7)"/>
     <use xlink:href="#DejaVuSans-16" transform="translate(129.272461 -14.906201) scale(0.7)"/>
    </g>
   </g>
   <g id="patch_6">
    <path d="M 296.28 72.38 
C 296.996048 72.38 297.682866 72.095511 298.189188 71.589188 
C 298.695511 71.082866 298.98 70.396048 298.98 69.68 
C 298.98 68.963952 298.695511 68.277134 298.189188 67.770812 
C 297.682866 67.264489 296.996048 66.98 296.28 66.98 
C 295.563952 66.98 294.877134 67.264489 294.370812 67.770812 
C 293.864489 68.277134 293.58 68.963952 293.58 69.68 
C 293.58 70.396048 293.864489 71.082866 294.370812 71.589188 
C 294.877134 72.095511 295.563952 72.38 296.28 72.38 
z
" clip-path="url(#p7166cbd881)" style="stroke: #000000; stroke-width: 2; stroke-linejoin: miter"/>
   </g>
   <g id="text_14">
    <!-- $T_{room}$ -->
    <g transform="translate(304.38 73.1) scale(0.12 -0.12)">
     <use xlink:href="#DejaVuSans-Oblique-37" transform="translate(0 0.09375)"/>
     <use xlink:href="#DejaVuSans-Oblique-55" transform="translate(61.083984 -14.906201) scale(0.7)"/>
     <use xlink:href="#DejaVuSans-Oblique-52" transform="translate(89.863281 -14.906201) scale(0.7)"/>
     <use xlink:href="#DejaVuSans-Oblique-52" transform="translate(132.69043 -14.906201) scale(0.7)"/>
     <use xlink:href="#DejaVuSans-Oblique-50" transform="translate(175.517578 -14.906201) scale(0.7)"/>
    </g>
   </g>
  </g>
 </g>
 <defs>
  <clipPath id="p7166cbd881">
   <rect x="0" y="-0" width="352.764" height="162.2"/>
  </clipPath>
 </defs>
</svg>
