<?xml version="1.0" encoding="utf-8" standalone="no"?>
<!DOCTYPE svg PUBLIC "-//W3C//DTD SVG 1.1//EN"
  "http://www.w3.org/Graphics/SVG/1.1/DTD/svg11.dtd">
<svg xmlns:xlink="http://www.w3.org/1999/xlink" width="241.839pt" height="150.96pt" viewBox="0 0 241.839 150.96" xmlns="http://www.w3.org/2000/svg" version="1.1">
 <metadata>
  <rdf:RDF xmlns:dc="http://purl.org/dc/elements/1.1/" xmlns:cc="http://creativecommons.org/ns#" xmlns:rdf="http://www.w3.org/1999/02/22-rdf-syntax-ns#">
   <cc:Work>
    <dc:type rdf:resource="http://purl.org/dc/dcmitype/StillImage"/>
    <dc:date>2026-06-24T19:16:03.139254</dc:date>
    <dc:format>image/svg+xml</dc:format>
    <dc:creator>
     <cc:Agent>
      <dc:title>Matplotlib v3.11.0, https://matplotlib.org/</dc:title>
     </cc:Agent>
    </dc:creator>
   </cc:Work>
  </rdf:RDF>
 </metadata>
 <defs>
  <style type="text/css">*{stroke-linejoin: round; stroke-linecap: butt}</style>
 </defs>
 <g id="figure_1">
  <g id="patch_1">
   <path d="M 0 150.96 
L 241.839 150.96 
L 241.839 0 
L 0 0 
L 0 150.96 
z
" style="fill: none"/>
  </g>
  <g id="axes_1">
   <g id="patch_2">
    <path d="M 67.743 91.48 
C 72.516656 91.48 77.095438 89.583406 80.470922 86.207922 
C 83.846406 82.832438 85.743 78.253656 85.743 73.48 
C 85.743 68.706344 83.846406 64.127562 80.470922 60.752078 
C 77.095438 57.376594 72.516656 55.48 67.743 55.48 
C 62.969344 55.48 58.390562 57.376594 55.015078 60.752078 
C 51.639594 64.127562 49.743 68.706344 49.743 73.48 
C 49.743 78.253656 51.639594 82.832438 55.015078 86.207922 
C 58.390562 89.583406 62.969344 91.48 67.743 91.48 
L 67.743 91.48 
z
" clip-path="url(#pdbae13b750)" style="fill: none; stroke: #000000; stroke-width: 2; stroke-linejoin: miter"/>
   </g>
   <g id="line2d_1">
    <path d="M 67.743 116.68 
L 67.743 91.48 
L 67.743 91.48 
M 67.743 55.48 
L 67.743 55.48 
L 67.743 30.28 
" clip-path="url(#pdbae13b750)" style="fill: none; stroke: #000000; stroke-width: 2; stroke-linecap: round"/>
   </g>
   <g id="line2d_2">
    <path d="M 71.343 82.48 
L 64.143 82.48 
" clip-path="url(#pdbae13b750)" style="fill: none; stroke: #000000; stroke-width: 2; stroke-linecap: round"/>
   </g>
   <g id="line2d_3">
    <path d="M 67.743 68.08 
L 67.743 60.88 
" clip-path="url(#pdbae13b750)" style="fill: none; stroke: #000000; stroke-width: 2; stroke-linecap: round"/>
   </g>
   <g id="line2d_4">
    <path d="M 71.343 64.48 
L 64.143 64.48 
" clip-path="url(#pdbae13b750)" style="fill: none; stroke: #000000; stroke-width: 2; stroke-linecap: round"/>
   </g>
   <g id="line2d_5">
    <path d="M 67.743 30.28 
L 85.743 30.28 
L 103.743 30.28 
" clip-path="url(#pdbae13b750)" style="fill: none; stroke: #000000; stroke-width: 2; stroke-linecap: round"/>
   </g>
   <g id="line2d_6">
    <path d="M 103.743 30.28 
L 128.943 30.28 
L 131.943 21.28 
L 137.943 39.28 
L 143.943 21.28 
L 149.943 39.28 
L 155.943 21.28 
L 161.943 39.28 
L 164.943 30.28 
L 190.143 30.28 
" clip-path="url(#pdbae13b750)" style="fill: none; stroke: #000000; stroke-width: 2; stroke-linecap: round"/>
   </g>
   <g id="line2d_7">
    <path d="M 190.143 30.28 
L 190.143 70.24 
M 199.143 70.24 
L 181.143 70.24 
M 199.143 76.72 
L 181.143 76.72 
M 190.143 76.72 
L 190.143 116.68 
" clip-path="url(#pdbae13b750)" style="fill: none; stroke: #000000; stroke-width: 2; stroke-linecap: round"/>
   </g>
   <g id="line2d_8">
    <path d="M 190.143 116.68 
L 190.143 131.08 
L 181.143 131.08 
L 199.143 131.08 
M 183.843 135.4 
L 196.443 135.4 
M 188.343 139.72 
L 191.943 139.72 
" clip-path="url(#pdbae13b750)" style="fill: none; stroke: #000000; stroke-width: 2; stroke-linecap: round"/>
   </g>
   <g id="line2d_9">
    <path d="M 67.743 116.68 
L 67.743 116.68 
L 67.743 116.68 
" clip-path="url(#pdbae13b750)" style="fill: none; stroke: #000000; stroke-width: 2; stroke-linecap: round"/>
   </g>
   <g id="line2d_10">
    <path d="M 67.743 116.68 
L 128.943 116.68 
L 190.143 116.68 
" clip-path="url(#pdbae13b750)" style="fill: none; stroke: #000000; stroke-width: 2; stroke-linecap: round"/>
   </g>
   <g id="text_1">
    <!-- $T_{src}$ -->
    <g transform="translate(56.823 130.485) scale(0.13 -0.13)">
     <defs>
      <path id="DejaVuSans-Oblique-37" d="M 378 4666 
L 4325 4666 
L 4225 4134 
L 2559 4134 
L 1759 0 
L 1125 0 
L 1925 4134 
L 275 4134 
L 378 4666 
z
" transform="scale(0.015625)"/>
      <path id="DejaVuSans-Oblique-56" d="M 3200 3397 
L 3091 2853 
Q 2863 2978 2609 3040 
Q 2356 3103 2088 3103 
Q 1634 3103 1373 2948 
Q 1113 2794 1113 2528 
Q 1113 2219 1719 2053 
Q 1766 2041 1788 2034 
L 1972 1978 
Q 2547 1819 2739 1644 
Q 2931 1469 2931 1166 
Q 2931 609 2489 259 
Q 2047 -91 1331 -91 
Q 1053 -91 747 -37 
Q 441 16 72 128 
L 184 722 
Q 500 559 806 475 
Q 1113 391 1394 391 
Q 1816 391 2080 572 
Q 2344 753 2344 1031 
Q 2344 1331 1650 1516 
L 1591 1531 
L 1394 1581 
Q 956 1697 753 1886 
Q 550 2075 550 2369 
Q 550 2928 970 3256 
Q 1391 3584 2113 3584 
Q 2397 3584 2667 3537 
Q 2938 3491 3200 3397 
z
" transform="scale(0.015625)"/>
      <path id="DejaVuSans-Oblique-55" d="M 2853 2969 
Q 2766 3016 2653 3041 
Q 2541 3066 2413 3066 
Q 1953 3066 1609 2717 
Q 1266 2369 1153 1784 
L 800 0 
L 225 0 
L 909 3500 
L 1484 3500 
L 1375 2956 
Q 1603 3259 1920 3421 
Q 2238 3584 2597 3584 
Q 2691 3584 2781 3573 
Q 2872 3563 2963 3538 
L 2853 2969 
z
" transform="scale(0.015625)"/>
      <path id="DejaVuSans-Oblique-46" d="M 3431 3366 
L 3316 2797 
Q 3109 2947 2876 3022 
Q 2644 3097 2394 3097 
Q 2119 3097 1870 3000 
Q 1622 2903 1453 2725 
Q 1184 2453 1037 2087 
Q 891 1722 891 1331 
Q 891 859 1127 628 
Q 1363 397 1844 397 
Q 2081 397 2348 469 
Q 2616 541 2906 684 
L 2797 116 
Q 2547 13 2283 -39 
Q 2019 -91 1741 -91 
Q 1044 -91 669 257 
Q 294 606 294 1253 
Q 294 1797 489 2255 
Q 684 2713 1069 3078 
Q 1331 3328 1684 3456 
Q 2038 3584 2456 3584 
Q 2700 3584 2940 3529 
Q 3181 3475 3431 3366 
z
" transform="scale(0.015625)"/>
     </defs>
     <use xlink:href="#DejaVuSans-Oblique-37" transform="translate(0 0.09375)"/>
     <use xlink:href="#DejaVuSans-Oblique-56" transform="translate(61.083984 -14.906201) scale(0.7)"/>
     <use xlink:href="#DejaVuSans-Oblique-55" transform="translate(97.553711 -14.906201) scale(0.7)"/>
     <use xlink:href="#DejaVuSans-Oblique-46" transform="translate(126.333008 -14.906201) scale(0.7)"/>
    </g>
    <!-- ($T_{ext}$ / $T_{gnd}$ / $T_{adj}$) -->
    <g transform="translate(14.703 142.77) scale(0.13 -0.13)">
     <defs>
      <path id="DejaVuSans-b" d="M 1984 4856 
Q 1566 4138 1362 3434 
Q 1159 2731 1159 2009 
Q 1159 1288 1364 580 
Q 1569 -128 1984 -844 
L 1484 -844 
Q 1016 -109 783 600 
Q 550 1309 550 2009 
Q 550 2706 781 3412 
Q 1013 4119 1484 4856 
L 1984 4856 
z
" transform="scale(0.015625)"/>
      <path id="DejaVuSans-Oblique-48" d="M 3078 2063 
Q 3088 2113 3092 2166 
Q 3097 2219 3097 2272 
Q 3097 2653 2873 2875 
Q 2650 3097 2266 3097 
Q 1838 3097 1509 2826 
Q 1181 2556 1013 2059 
L 3078 2063 
z
M 3578 1613 
L 903 1613 
Q 884 1494 878 1425 
Q 872 1356 872 1306 
Q 872 872 1139 634 
Q 1406 397 1894 397 
Q 2269 397 2603 481 
Q 2938 566 3225 728 
L 3116 159 
Q 2806 34 2476 -28 
Q 2147 -91 1806 -91 
Q 1078 -91 686 257 
Q 294 606 294 1247 
Q 294 1794 489 2264 
Q 684 2734 1063 3103 
Q 1306 3334 1642 3459 
Q 1978 3584 2356 3584 
Q 2950 3584 3301 3228 
Q 3653 2872 3653 2272 
Q 3653 2128 3634 1964 
Q 3616 1800 3578 1613 
z
" transform="scale(0.015625)"/>
      <path id="DejaVuSans-Oblique-5b" d="M 3841 3500 
L 2234 1784 
L 3219 0 
L 2559 0 
L 1819 1388 
L 531 0 
L -166 0 
L 1556 1844 
L 641 3500 
L 1300 3500 
L 1972 2234 
L 3144 3500 
L 3841 3500 
z
" transform="scale(0.015625)"/>
      <path id="DejaVuSans-Oblique-57" d="M 2706 3500 
L 2619 3053 
L 1472 3053 
L 1100 1153 
Q 1081 1047 1072 975 
Q 1063 903 1063 863 
Q 1063 663 1183 572 
Q 1303 481 1569 481 
L 2150 481 
L 2053 0 
L 1503 0 
Q 991 0 739 200 
Q 488 400 488 806 
Q 488 878 497 964 
Q 506 1050 525 1153 
L 897 3053 
L 409 3053 
L 500 3500 
L 978 3500 
L 1172 4494 
L 1747 4494 
L 1556 3500 
L 2706 3500 
z
" transform="scale(0.015625)"/>
      <path id="DejaVuSans-3" transform="scale(0.015625)"/>
      <path id="DejaVuSans-12" d="M 1625 4666 
L 2156 4666 
L 531 -594 
L 0 -594 
L 1625 4666 
z
" transform="scale(0.015625)"/>
      <path id="DejaVuSans-Oblique-4a" d="M 3816 3500 
L 3219 434 
Q 3047 -456 2561 -893 
Q 2075 -1331 1253 -1331 
Q 950 -1331 690 -1286 
Q 431 -1241 206 -1147 
L 313 -588 
Q 525 -725 762 -790 
Q 1000 -856 1269 -856 
Q 1816 -856 2167 -557 
Q 2519 -259 2631 300 
L 2681 563 
Q 2441 288 2122 144 
Q 1803 0 1434 0 
Q 903 0 598 351 
Q 294 703 294 1319 
Q 294 1803 478 2267 
Q 663 2731 997 3091 
Q 1219 3328 1514 3456 
Q 1809 3584 2131 3584 
Q 2484 3584 2746 3420 
Q 3009 3256 3138 2956 
L 3238 3500 
L 3816 3500 
z
M 2950 2216 
Q 2950 2641 2750 2872 
Q 2550 3103 2181 3103 
Q 1953 3103 1747 3012 
Q 1541 2922 1394 2759 
Q 1156 2491 1023 2127 
Q 891 1763 891 1375 
Q 891 944 1092 712 
Q 1294 481 1672 481 
Q 2219 481 2584 976 
Q 2950 1472 2950 2216 
z
" transform="scale(0.015625)"/>
      <path id="DejaVuSans-Oblique-51" d="M 3566 2113 
L 3156 0 
L 2578 0 
L 2988 2091 
Q 3016 2238 3031 2350 
Q 3047 2463 3047 2528 
Q 3047 2791 2881 2937 
Q 2716 3084 2419 3084 
Q 1956 3084 1622 2776 
Q 1288 2469 1184 1941 
L 800 0 
L 225 0 
L 903 3500 
L 1478 3500 
L 1363 2950 
Q 1603 3253 1940 3418 
Q 2278 3584 2650 3584 
Q 3113 3584 3367 3334 
Q 3622 3084 3622 2631 
Q 3622 2519 3608 2391 
Q 3594 2263 3566 2113 
z
" transform="scale(0.015625)"/>
      <path id="DejaVuSans-Oblique-47" d="M 2675 525 
Q 2444 222 2128 65 
Q 1813 -91 1428 -91 
Q 903 -91 598 267 
Q 294 625 294 1247 
Q 294 1766 478 2236 
Q 663 2706 1013 3078 
Q 1244 3325 1534 3454 
Q 1825 3584 2144 3584 
Q 2481 3584 2739 3421 
Q 2997 3259 3138 2956 
L 3513 4863 
L 4091 4863 
L 3144 0 
L 2566 0 
L 2675 525 
z
M 891 1350 
Q 891 897 1095 644 
Q 1300 391 1663 391 
Q 1931 391 2161 520 
Q 2391 650 2566 903 
Q 2750 1166 2856 1509 
Q 2963 1853 2963 2188 
Q 2963 2622 2758 2865 
Q 2553 3109 2194 3109 
Q 1922 3109 1687 2981 
Q 1453 2853 1288 2613 
Q 1106 2353 998 2009 
Q 891 1666 891 1350 
z
" transform="scale(0.015625)"/>
      <path id="DejaVuSans-Oblique-44" d="M 3438 1997 
L 3047 0 
L 2472 0 
L 2578 531 
Q 2325 219 2001 64 
Q 1678 -91 1281 -91 
Q 834 -91 548 182 
Q 263 456 263 884 
Q 263 1497 752 1853 
Q 1241 2209 2100 2209 
L 2900 2209 
L 2931 2363 
Q 2938 2388 2941 2417 
Q 2944 2447 2944 2509 
Q 2944 2788 2717 2942 
Q 2491 3097 2081 3097 
Q 1800 3097 1504 3025 
Q 1209 2953 897 2809 
L 997 3341 
Q 1322 3463 1633 3523 
Q 1944 3584 2234 3584 
Q 2853 3584 3176 3315 
Q 3500 3047 3500 2534 
Q 3500 2431 3484 2292 
Q 3469 2153 3438 1997 
z
M 2816 1759 
L 2241 1759 
Q 1534 1759 1195 1570 
Q 856 1381 856 984 
Q 856 709 1029 553 
Q 1203 397 1509 397 
Q 1978 397 2328 733 
Q 2678 1069 2791 1631 
L 2816 1759 
z
" transform="scale(0.015625)"/>
      <path id="DejaVuSans-Oblique-4d" d="M 928 3500 
L 1503 3500 
L 813 -63 
L 809 -78 
Q 694 -675 544 -897 
Q 403 -1106 132 -1218 
Q -138 -1331 -506 -1331 
L -722 -1331 
L -628 -844 
L -481 -844 
Q -144 -844 -1 -703 
Q 141 -563 238 -63 
L 928 3500 
z
M 1197 4863 
L 1772 4863 
L 1631 4134 
L 1056 4134 
L 1197 4863 
z
" transform="scale(0.015625)"/>
      <path id="DejaVuSans-c" d="M 513 4856 
L 1013 4856 
Q 1481 4119 1714 3412 
Q 1947 2706 1947 2009 
Q 1947 1309 1714 600 
Q 1481 -109 1013 -844 
L 513 -844 
Q 928 -128 1133 580 
Q 1338 1288 1338 2009 
Q 1338 2731 1133 3434 
Q 928 4138 513 4856 
z
" transform="scale(0.015625)"/>
     </defs>
     <use xlink:href="#DejaVuSans-b" transform="translate(0 0.125)"/>
     <use xlink:href="#DejaVuSans-Oblique-37" transform="translate(39.013672 0.125)"/>
     <use xlink:href="#DejaVuSans-Oblique-48" transform="translate(100.097656 -14.874951) scale(0.7)"/>
     <use xlink:href="#DejaVuSans-Oblique-5b" transform="translate(143.164062 -14.874951) scale(0.7)"/>
     <use xlink:href="#DejaVuSans-Oblique-57" transform="translate(184.589844 -14.874951) scale(0.7)"/>
     <use xlink:href="#DejaVuSans-3" transform="translate(214.770508 0.125)"/>
     <use xlink:href="#DejaVuSans-12" transform="translate(246.557617 0.125)"/>
     <use xlink:href="#DejaVuSans-3" transform="translate(280.249023 0.125)"/>
     <use xlink:href="#DejaVuSans-Oblique-37" transform="translate(312.036133 0.125)"/>
     <use xlink:href="#DejaVuSans-Oblique-4a" transform="translate(373.120117 -14.874951) scale(0.7)"/>
     <use xlink:href="#DejaVuSans-Oblique-51" transform="translate(417.553711 -14.874951) scale(0.7)"/>
     <use xlink:href="#DejaVuSans-Oblique-47" transform="translate(461.918945 -14.874951) scale(0.7)"/>
     <use xlink:href="#DejaVuSans-3" transform="translate(509.086914 0.125)"/>
     <use xlink:href="#DejaVuSans-12" transform="translate(540.874023 0.125)"/>
     <use xlink:href="#DejaVuSans-3" transform="translate(574.56543 0.125)"/>
     <use xlink:href="#DejaVuSans-Oblique-37" transform="translate(606.352539 0.125)"/>
     <use xlink:href="#DejaVuSans-Oblique-44" transform="translate(667.436523 -14.874951) scale(0.7)"/>
     <use xlink:href="#DejaVuSans-Oblique-47" transform="translate(710.332031 -14.874951) scale(0.7)"/>
     <use xlink:href="#DejaVuSans-Oblique-4d" transform="translate(754.765625 -14.874951) scale(0.7)"/>
     <use xlink:href="#DejaVuSans-c" transform="translate(776.948242 0.125)"/>
    </g>
   </g>
   <g id="text_2">
    <!-- $R = 1/H$ -->
    <g transform="translate(123.218 15.275) scale(0.13 -0.13)">
     <defs>
      <path id="DejaVuSans-Oblique-35" d="M 1613 4147 
L 1294 2491 
L 2106 2491 
Q 2584 2491 2879 2755 
Q 3175 3019 3175 3444 
Q 3175 3784 2976 3965 
Q 2778 4147 2406 4147 
L 1613 4147 
z
M 2772 2241 
Q 2972 2194 3105 2009 
Q 3238 1825 3413 1275 
L 3809 0 
L 3144 0 
L 2778 1197 
Q 2638 1659 2453 1815 
Q 2269 1972 1888 1972 
L 1191 1972 
L 806 0 
L 172 0 
L 1081 4666 
L 2503 4666 
Q 3150 4666 3495 4373 
Q 3841 4081 3841 3531 
Q 3841 3044 3547 2687 
Q 3253 2331 2772 2241 
z
" transform="scale(0.015625)"/>
      <path id="DejaVuSans-20" d="M 678 2906 
L 4684 2906 
L 4684 2381 
L 678 2381 
L 678 2906 
z
M 678 1631 
L 4684 1631 
L 4684 1100 
L 678 1100 
L 678 1631 
z
" transform="scale(0.015625)"/>
      <path id="DejaVuSans-14" d="M 794 531 
L 1825 531 
L 1825 4091 
L 703 3866 
L 703 4441 
L 1819 4666 
L 2450 4666 
L 2450 531 
L 3481 531 
L 3481 0 
L 794 0 
L 794 531 
z
" transform="scale(0.015625)"/>
      <path id="DejaVuSans-Oblique-2b" d="M 1081 4666 
L 1716 4666 
L 1344 2753 
L 3634 2753 
L 4006 4666 
L 4641 4666 
L 3731 0 
L 3097 0 
L 3531 2222 
L 1241 2222 
L 806 0 
L 172 0 
L 1081 4666 
z
" transform="scale(0.015625)"/>
     </defs>
     <use xlink:href="#DejaVuSans-Oblique-35" transform="translate(0 0.09375)"/>
     <use xlink:href="#DejaVuSans-20" transform="translate(88.964844 0.09375)"/>
     <use xlink:href="#DejaVuSans-14" transform="translate(192.236328 0.09375)"/>
     <use xlink:href="#DejaVuSans-12" transform="translate(255.859375 0.09375)"/>
     <use xlink:href="#DejaVuSans-Oblique-2b" transform="translate(289.550781 0.09375)"/>
    </g>
   </g>
   <g id="text_3">
    <!-- $C_{room}$ -->
    <g transform="translate(173.503 24.015) scale(0.13 -0.13)">
     <defs>
      <path id="DejaVuSans-Oblique-26" d="M 4447 4306 
L 4319 3641 
Q 4019 3944 3683 4091 
Q 3347 4238 2956 4238 
Q 2422 4238 2017 3981 
Q 1613 3725 1319 3200 
Q 1131 2863 1032 2486 
Q 934 2109 934 1728 
Q 934 1091 1264 756 
Q 1594 422 2222 422 
Q 2656 422 3056 561 
Q 3456 700 3834 978 
L 3688 231 
Q 3316 72 2936 -9 
Q 2556 -91 2175 -91 
Q 1278 -91 773 396 
Q 269 884 269 1753 
Q 269 2309 461 2846 
Q 653 3384 1013 3828 
Q 1394 4300 1883 4525 
Q 2372 4750 3022 4750 
Q 3422 4750 3780 4639 
Q 4138 4528 4447 4306 
z
" transform="scale(0.015625)"/>
      <path id="DejaVuSans-Oblique-52" d="M 1625 -91 
Q 1009 -91 651 289 
Q 294 669 294 1325 
Q 294 1706 417 2101 
Q 541 2497 738 2766 
Q 1047 3184 1428 3384 
Q 1809 3584 2291 3584 
Q 2888 3584 3255 3212 
Q 3622 2841 3622 2241 
Q 3622 1825 3500 1412 
Q 3378 1000 3181 728 
Q 2875 309 2494 109 
Q 2113 -91 1625 -91 
z
M 891 1344 
Q 891 869 1089 633 
Q 1288 397 1691 397 
Q 2269 397 2648 901 
Q 3028 1406 3028 2181 
Q 3028 2634 2825 2865 
Q 2622 3097 2228 3097 
Q 1903 3097 1650 2945 
Q 1397 2794 1197 2484 
Q 1050 2253 970 1956 
Q 891 1659 891 1344 
z
" transform="scale(0.015625)"/>
      <path id="DejaVuSans-Oblique-50" d="M 5747 2113 
L 5338 0 
L 4763 0 
L 5166 2094 
Q 5191 2228 5203 2325 
Q 5216 2422 5216 2491 
Q 5216 2772 5059 2928 
Q 4903 3084 4622 3084 
Q 4203 3084 3875 2770 
Q 3547 2456 3450 1953 
L 3066 0 
L 2491 0 
L 2900 2094 
Q 2925 2209 2937 2307 
Q 2950 2406 2950 2484 
Q 2950 2769 2794 2926 
Q 2638 3084 2363 3084 
Q 1938 3084 1609 2770 
Q 1281 2456 1184 1953 
L 800 0 
L 225 0 
L 909 3500 
L 1484 3500 
L 1375 2956 
Q 1609 3263 1923 3423 
Q 2238 3584 2597 3584 
Q 2978 3584 3223 3384 
Q 3469 3184 3519 2828 
Q 3781 3197 4126 3390 
Q 4472 3584 4856 3584 
Q 5306 3584 5551 3325 
Q 5797 3066 5797 2591 
Q 5797 2488 5784 2364 
Q 5772 2241 5747 2113 
z
" transform="scale(0.015625)"/>
     </defs>
     <use xlink:href="#DejaVuSans-Oblique-26" transform="translate(0 0.78125)"/>
     <use xlink:href="#DejaVuSans-Oblique-55" transform="translate(69.824219 -14.218701) scale(0.7)"/>
     <use xlink:href="#DejaVuSans-Oblique-52" transform="translate(98.603516 -14.218701) scale(0.7)"/>
     <use xlink:href="#DejaVuSans-Oblique-52" transform="translate(141.430664 -14.218701) scale(0.7)"/>
     <use xlink:href="#DejaVuSans-Oblique-50" transform="translate(184.257812 -14.218701) scale(0.7)"/>
    </g>
   </g>
   <g id="text_4">
    <!-- $Q = H\,(T_{src} - T_{room})$ -->
    <g style="fill: #000080" transform="translate(107.803 65.98) scale(0.11 -0.11)">
     <defs>
      <path id="DejaVuSans-Oblique-34" d="M 2309 -84 
Q 2275 -88 2237 -89 
Q 2200 -91 2125 -91 
Q 1250 -91 756 411 
Q 263 913 263 1797 
Q 263 2319 452 2844 
Q 641 3369 978 3788 
Q 1369 4269 1858 4509 
Q 2347 4750 2938 4750 
Q 3794 4750 4287 4245 
Q 4781 3741 4781 2869 
Q 4781 1928 4265 1147 
Q 3750 366 2919 44 
L 3553 -825 
L 2847 -825 
L 2309 -84 
z
M 2919 4238 
Q 2400 4238 2003 3986 
Q 1606 3734 1313 3219 
Q 1125 2891 1026 2522 
Q 928 2153 928 1778 
Q 928 1128 1239 775 
Q 1550 422 2119 422 
Q 2631 422 3032 676 
Q 3434 931 3719 1434 
Q 3909 1772 4009 2142 
Q 4109 2513 4109 2881 
Q 4109 3528 3796 3883 
Q 3484 4238 2919 4238 
z
" transform="scale(0.015625)"/>
      <path id="DejaVuSans-c9c" d="M 678 2272 
L 4684 2272 
L 4684 1741 
L 678 1741 
L 678 2272 
z
" transform="scale(0.015625)"/>
     </defs>
     <use xlink:href="#DejaVuSans-Oblique-34" transform="translate(0 0.125)"/>
     <use xlink:href="#DejaVuSans-20" transform="translate(98.193359 0.125)"/>
     <use xlink:href="#DejaVuSans-Oblique-2b" transform="translate(201.464844 0.125)"/>
     <use xlink:href="#DejaVuSans-b" transform="translate(292.895833 0.125)"/>
     <use xlink:href="#DejaVuSans-Oblique-37" transform="translate(331.909504 0.125)"/>
     <use xlink:href="#DejaVuSans-Oblique-56" transform="translate(392.993489 -14.874951) scale(0.7)"/>
     <use xlink:href="#DejaVuSans-Oblique-55" transform="translate(429.463215 -14.874951) scale(0.7)"/>
     <use xlink:href="#DejaVuSans-Oblique-46" transform="translate(458.242512 -14.874951) scale(0.7)"/>
     <use xlink:href="#DejaVuSans-c9c" transform="translate(518.945637 0.125)"/>
     <use xlink:href="#DejaVuSans-Oblique-37" transform="translate(622.217122 0.125)"/>
     <use xlink:href="#DejaVuSans-Oblique-55" transform="translate(683.301106 -14.874951) scale(0.7)"/>
     <use xlink:href="#DejaVuSans-Oblique-52" transform="translate(712.080403 -14.874951) scale(0.7)"/>
     <use xlink:href="#DejaVuSans-Oblique-52" transform="translate(754.907551 -14.874951) scale(0.7)"/>
     <use xlink:href="#DejaVuSans-Oblique-50" transform="translate(797.7347 -14.874951) scale(0.7)"/>
     <use xlink:href="#DejaVuSans-c" transform="translate(868.657551 0.125)"/>
    </g>
   </g>
   <g id="patch_3">
    <path d="M 190.143 32.98 
C 190.859048 32.98 191.545866 32.695511 192.052188 32.189188 
C 192.558511 31.682866 192.843 30.996048 192.843 30.28 
C 192.843 29.563952 192.558511 28.877134 192.052188 28.370812 
C 191.545866 27.864489 190.859048 27.58 190.143 27.58 
C 189.426952 27.58 188.740134 27.864489 188.233812 28.370812 
C 187.727489 28.877134 187.443 29.563952 187.443 30.28 
C 187.443 30.996048 187.727489 31.682866 188.233812 32.189188 
C 188.740134 32.695511 189.426952 32.98 190.143 32.98 
z
" clip-path="url(#pdbae13b750)" style="stroke: #000000; stroke-width: 2; stroke-linejoin: miter"/>
   </g>
   <g id="text_5">
    <!-- $T_{room}$ -->
    <g transform="translate(196.443 33.985) scale(0.13 -0.13)">
     <use xlink:href="#DejaVuSans-Oblique-37" transform="translate(0 0.09375)"/>
     <use xlink:href="#DejaVuSans-Oblique-55" transform="translate(61.083984 -14.906201) scale(0.7)"/>
     <use xlink:href="#DejaVuSans-Oblique-52" transform="translate(89.863281 -14.906201) scale(0.7)"/>
     <use xlink:href="#DejaVuSans-Oblique-52" transform="translate(132.69043 -14.906201) scale(0.7)"/>
     <use xlink:href="#DejaVuSans-Oblique-50" transform="translate(175.517578 -14.906201) scale(0.7)"/>
    </g>
   </g>
  </g>
 </g>
 <defs>
  <clipPath id="pdbae13b750">
   <rect x="0" y="0" width="241.839" height="150.96"/>
  </clipPath>
 </defs>
</svg>
