<svg xmlns="http://www.w3.org/2000/svg" xmlns:xlink="http://www.w3.org/1999/xlink" xml:lang="en" height="194.64000000000001pt" width="357.953pt" viewBox="-154.84000000000003 -167.0 357.953 194.64000000000001"><circle cx="0" cy="-39.6" r="18" style="stroke:black;fill:none;stroke-width:2.0;stroke-dasharray:-;" /><circle cx="25.2" cy="-97.2" r="18" style="stroke:black;fill:none;stroke-width:2.0;stroke-dasharray:-;" /><circle cx="176.4" cy="-39.6" r="18" style="stroke:black;fill:none;stroke-width:2.0;stroke-dasharray:-;" /><path d="M 0.0,-0.0 L 0,-21.6 L 0,-21.6 M 0,-57.6 L 0,-57.6 L 0,-79.2" style="stroke:black;fill:none;stroke-width:2.0;stroke-dasharray:-;stroke-linecap:round;stroke-linejoin:round;" /><path d="M 3.6000000000000023,-30.6 L -3.6,-30.6" style="stroke:black;fill:none;stroke-width:2.0;stroke-dasharray:-;stroke-linecap:round;stroke-linejoin:round;" /><path d="M 2.7554552980815448e-15,-45.0 L 0,-52.2" style="stroke:black;fill:none;stroke-width:2.0;stroke-dasharray:-;stroke-linecap:round;stroke-linejoin:round;" /><path d="M 3.600000000000003,-48.6 L -3.6,-48.6" style="stroke:black;fill:none;stroke-width:2.0;stroke-dasharray:-;stroke-linecap:round;stroke-linejoin:round;" /><path d="M 4.8496013246235196e-15,-79.2 L 12.6,-79.2 L 25.2,-79.2" style="stroke:black;fill:none;stroke-width:2.0;stroke-dasharray:-;stroke-linecap:round;stroke-linejoin:round;" /><path d="M 25.200000000000003,-79.2 L 46.8,-79.2 L 49.8,-88.2 L 55.8,-70.2 L 61.8,-88.2 L 67.8,-70.2 L 73.8,-88.2 L 79.8,-70.2 L 82.8,-79.2 L 104.4,-79.2" style="stroke:black;fill:none;stroke-width:2.0;stroke-dasharray:-;stroke-linecap:round;stroke-linejoin:round;" /><path d="M 104.4,-79.2 L 104.4,-42.84 M 113.4,-42.84 L 95.4,-42.84 M 113.4,-36.36 L 95.4,-36.36 M 104.4,-36.36 L 104.4,-0" style="stroke:black;fill:none;stroke-width:2.0;stroke-dasharray:-;stroke-linecap:round;stroke-linejoin:round;" /><path d="M 104.39999999999999,-0.0 L 104.4,14.4 L 95.4,14.4 L 113.4,14.4 M 98.1,18.72 L 110.7,18.72 M 102.6,23.04 L 106.2,23.04" style="stroke:black;fill:none;stroke-width:2.0;stroke-dasharray:-;stroke-linecap:round;stroke-linejoin:round;" /><path d="M 0.0,-0.0" style="stroke:black;fill:none;stroke-width:2.0;stroke-dasharray:-;stroke-linecap:round;stroke-linejoin:round;" /><path d="M 104.4,-79.2 L 104.4,-108 L 104.4,-136.8" style="stroke:black;fill:none;stroke-width:2.0;stroke-dasharray:-;stroke-linecap:round;stroke-linejoin:round;" /><path d="M 104.4,-136.8 L 82.8,-136.8 L 79.8,-127.8 L 73.8,-145.8 L 67.8,-127.8 L 61.8,-145.8 L 55.8,-127.8 L 49.8,-145.8 L 46.8,-136.8 L 25.2,-136.8" style="stroke:black;fill:none;stroke-width:2.0;stroke-dasharray:-;stroke-linecap:round;stroke-linejoin:round;" /><path d="M 25.200000000000006,-136.8 L 25.2,-115.2 L 25.2,-115.2 M 25.2,-79.2 L 25.2,-79.2 L 25.2,-57.6" style="stroke:black;fill:none;stroke-width:2.0;stroke-dasharray:-;stroke-linecap:round;stroke-linejoin:round;" /><path d="M 28.799999999999997,-88.20000000000002 L 21.6,-88.2" style="stroke:black;fill:none;stroke-width:2.0;stroke-dasharray:-;stroke-linecap:round;stroke-linejoin:round;" /><path d="M 25.200000000000003,-109.80000000000003 L 25.2,-102.6" style="stroke:black;fill:none;stroke-width:2.0;stroke-dasharray:-;stroke-linecap:round;stroke-linejoin:round;" /><path d="M 28.8,-106.20000000000002 L 21.6,-106.2" style="stroke:black;fill:none;stroke-width:2.0;stroke-dasharray:-;stroke-linecap:round;stroke-linejoin:round;" /><path d="M 25.19999999999999,-57.60000000000002 L 25.2,-28.8 L 25.2,-0" style="stroke:black;fill:none;stroke-width:2.0;stroke-dasharray:-;stroke-linecap:round;stroke-linejoin:round;" /><path d="M 25.199999999999978,-0.0 L 64.8,-0 L 104.4,-0" style="stroke:black;fill:none;stroke-width:2.0;stroke-dasharray:-;stroke-linecap:round;stroke-linejoin:round;" /><path d="M 104.4,-79.2 L 140.4,-79.2 L 176.4,-79.2" style="stroke:black;fill:none;stroke-width:2.0;stroke-dasharray:-;stroke-linecap:round;stroke-linejoin:round;" /><path d="M 176.4,-79.2 L 176.4,-57.6 L 176.4,-57.6 M 176.4,-21.6 L 176.4,-21.6 L 176.4,-0" style="stroke:black;fill:none;stroke-width:2.0;stroke-dasharray:-;stroke-linecap:round;stroke-linejoin:round;" /><path d="M 176.4,-48.6 L 176.4,-39.6" style="stroke:black;fill:none;stroke-width:2.0;stroke-dasharray:-;stroke-linecap:round;stroke-linejoin:round;" /><path d="M 176.4 -32.6 L 173.7 -39.6 L 179.1 -39.6 Z" style="stroke:black;fill:black;stroke-linecap:butt;stroke-linejoin:miter;" /><path d="M 176.4,-0.0 L 140.4,-0 L 104.4,-0" style="stroke:black;fill:none;stroke-width:2.0;stroke-dasharray:-;stroke-linecap:round;stroke-linejoin:round;" /><text x="-2.2043642384652353e-16" y="-9.4" dominant-baseline="hanging" fill="black" font-size="13" font-family="sans" text-anchor="middle"><tspan x="-2.2043642384652353e-16" dy="13">T<tspan baseline-shift="-2" font-size="smaller">ext</tspan></tspan></text><text x="64.80000000000001" y="-79.60000000000001" dominant-baseline="hanging" fill="black" font-size="13" font-family="sans" text-anchor="middle"><tspan x="64.80000000000001" dy="13">H<tspan baseline-shift="-2" font-size="smaller">ve</tspan></tspan></text><text x="104.4" y="-95.80000000000001" dominant-baseline="ideographic" fill="black" font-size="13" font-family="sans" text-anchor="middle"><tspan x="104.4" dy="13">C<tspan baseline-shift="-2" font-size="smaller">room</tspan></tspan></text><text x="64.80000000000001" y="-162.4" dominant-baseline="ideographic" fill="black" font-size="13" font-family="sans" text-anchor="middle"><tspan x="64.80000000000001" dy="13">H<tspan baseline-shift="-2" font-size="smaller">ve</tspan></tspan></text><text x="25.19999999999999" y="-67.00000000000001" dominant-baseline="hanging" fill="black" font-size="13" font-family="sans" text-anchor="middle"><tspan x="25.19999999999999" dy="13">T<tspan baseline-shift="-2" font-size="smaller">ext</tspan></tspan></text><text x="176.4" y="-95.80000000000001" dominant-baseline="ideographic" fill="black" font-size="13" font-family="sans" text-anchor="middle"><tspan x="176.4" dy="13">Q<tspan baseline-shift="-2" font-size="smaller">room</tspan></tspan></text><text x="3.5999999999999996" y="-128.8" dominant-baseline="central" fill="navy" font-size="10" font-family="sans" text-anchor="middle"><tspan x="3.5999999999999996" dy="10">RoomMass  +  Ventilation  +  HeavyWall  +  WindowLoss  +  SolarGain</tspan></text><circle cx="104.4" cy="-79.2" r="2.7" style="stroke:black;fill:black;stroke-width:2.0;stroke-dasharray:-;" /><text x="104.4" y="-102.10000000000001" dominant-baseline="ideographic" fill="black" font-size="13" font-family="sans" text-anchor="middle"><tspan x="104.4" dy="13">T<tspan baseline-shift="-2" font-size="smaller">room</tspan></tspan></text></svg>